<svg width="70" height="70" viewBox="0 0 70 70" fill="none" xmlns="http://www.w3.org/2000/svg">
<path d="M21.0585 4.375H7.146V65.625H21.0585V4.375Z" stroke="white" stroke-width="1.5" stroke-miterlimit="10"/>
<path d="M1.604 4.375H26.6582" stroke="white" stroke-width="1.5" stroke-miterlimit="10"/>
<path d="M48.9125 51.7124H35V65.6249H48.9125V51.7124Z" stroke="white" stroke-width="1.5" stroke-miterlimit="10"/>
<path d="M62.8541 35V65.625H21.0874V40.5708L43.3416 35V40.5708L62.8541 35Z" stroke="white" stroke-width="1.5" stroke-miterlimit="10"/>
<path d="M44.946 23.8584L37.771 23.8584V16.5667C37.771 14.9465 38.0901 13.3422 38.7102 11.8454C39.3302 10.3485 40.239 8.98844 41.3846 7.8428C42.5302 6.69716 43.8903 5.78838 45.3872 5.16837C46.884 4.54835 48.4883 4.22923 50.1085 4.22923H57.1377V11.5209C57.1379 14.7679 55.8581 17.8841 53.5758 20.1937C51.2936 22.5033 48.1928 23.82 44.946 23.8584Z" stroke="white" stroke-width="1.5" stroke-miterlimit="10"/>
<path d="M32.229 29.4293L48.9123 12.7168" stroke="white" stroke-width="1.5" stroke-miterlimit="10"/>
<path d="M1.604 65.625H68.3957" stroke="white" stroke-width="1.5" stroke-miterlimit="10"/>
</svg>
