<svg width="70" height="70" viewBox="0 0 70 70" fill="none" xmlns="http://www.w3.org/2000/svg">
<path d="M1.4585 65.6831H68.5418" stroke="white" stroke-width="1.5" stroke-miterlimit="10"/>
<path d="M9.8584 65.6834L12.6292 57.3126L18.2292 54.5126L23.8292 48.9126H46.1709L48.9709 54.5126L57.3709 57.3126L62.9417 65.6834" stroke="white" stroke-width="1.5" stroke-miterlimit="10"/>
<path d="M35.0002 29.3418C39.6233 29.3418 43.3711 25.594 43.3711 20.9709C43.3711 16.3478 39.6233 12.6001 35.0002 12.6001C30.3771 12.6001 26.6294 16.3478 26.6294 20.9709C26.6294 25.594 30.3771 29.3418 35.0002 29.3418Z" stroke="white" stroke-width="1.5" stroke-miterlimit="10"/>
<path d="M44.8877 11.0834L46.871 9.10003L48.8252 7.1167" stroke="white" stroke-width="1.5" stroke-miterlimit="10"/>
<path d="M21.1748 34.7959L23.129 32.8126L25.1123 30.8584" stroke="white" stroke-width="1.5" stroke-miterlimit="10"/>
<path d="M25.1123 11.0834L23.129 9.10003L21.1748 7.1167" stroke="white" stroke-width="1.5" stroke-miterlimit="10"/>
<path d="M48.8252 34.7959L46.871 32.8126L44.8877 30.8584" stroke="white" stroke-width="1.5" stroke-miterlimit="10"/>
</svg>
