<svg width="80" height="80" viewBox="0 0 80 80" fill="none" xmlns="http://www.w3.org/2000/svg">
<path d="M20.9333 74.9667H46.1333C48.2212 74.9696 50.2889 74.5587 52.217 73.7577C54.1452 72.9567 55.8954 71.7815 57.3666 70.3L73.0666 54.6C73.7026 53.968 74.2046 53.2142 74.5425 52.3838C74.8804 51.5533 75.0473 50.6632 75.0333 49.7667C75.0553 48.4243 74.6715 47.1066 73.9322 45.986C73.1928 44.8654 72.1324 43.9941 70.8896 43.4862C69.6469 42.9783 68.2798 42.8575 66.9672 43.1395C65.6546 43.4214 64.4577 44.0932 63.5333 45.0667L46.3666 62.2333H43.3333C44.2573 62.2368 45.1708 62.0381 46.0099 61.651C46.8489 61.264 47.5931 60.6981 48.1902 59.993C48.7874 59.2878 49.223 58.4606 49.4665 57.5693C49.71 56.678 49.7556 55.7441 49.5999 54.8333C49.2815 53.311 48.4407 51.9479 47.2233 50.98C46.0058 50.0121 44.4882 49.5004 42.9333 49.5333H30.4666L27.3666 48C24.7073 46.6746 21.7237 46.1397 18.7696 46.4587C15.8155 46.7778 13.0149 47.9374 10.6999 49.8C8.91417 51.2584 7.48026 53.1007 6.50494 55.1899C5.52961 57.279 5.03797 59.5612 5.06661 61.8667V62.2333" stroke="white" stroke-width="2" stroke-miterlimit="10"/>
<path d="M43.1665 62.2334H27.2998" stroke="white" stroke-width="2" stroke-miterlimit="10"/>
<path d="M17.7666 5.0332H24.0999C28.3169 5.0332 32.3611 6.70838 35.3429 9.69021C38.3248 12.672 39.9999 16.7163 39.9999 20.9332H33.6333C29.4221 20.9244 25.3864 19.2453 22.4118 16.2644C19.4372 13.2836 17.7666 9.24438 17.7666 5.0332Z" stroke="white" stroke-width="2" stroke-miterlimit="10"/>
<path d="M46.3666 24.1001H39.9999C39.9999 22.0121 40.4112 19.9445 41.2102 18.0154C42.0093 16.0864 43.1805 14.3336 44.6569 12.8571C46.1334 11.3806 47.8862 10.2095 49.8153 9.41041C51.7443 8.61136 53.8119 8.2001 55.8999 8.2001H62.2666C62.2666 12.417 60.5914 16.4613 57.6096 19.4431C54.6278 22.4249 50.5835 24.1001 46.3666 24.1001Z" stroke="white" stroke-width="2" stroke-miterlimit="10"/>
<path d="M40 49.5331V20.9331" stroke="white" stroke-width="2" stroke-miterlimit="10"/>
</svg>
