<svg width="80" height="80" viewBox="0 0 80 80" fill="none" xmlns="http://www.w3.org/2000/svg">
<path d="M67.1668 46.3668C68.1474 43.2844 68.6422 40.0681 68.6335 36.8335C68.64 30.5346 66.7778 24.3753 63.2825 19.1353C59.7871 13.8952 54.8158 9.80988 48.9976 7.39636C43.1795 4.98284 36.7761 4.34962 30.5979 5.57686C24.4198 6.80409 18.7446 9.8366 14.2906 14.2906C9.8366 18.7446 6.80409 24.4198 5.57686 30.5979C4.34962 36.7761 4.98284 43.1795 7.39636 48.9976C9.80988 54.8158 13.8952 59.7871 19.1353 63.2825C24.3753 66.7778 30.5346 68.64 36.8335 68.6335C40.0681 68.6422 43.2844 68.1474 46.3668 67.1668" stroke="white" stroke-width="2" stroke-miterlimit="10"/>
<path d="M67.1668 46.3668C68.1474 43.2844 68.6422 40.0681 68.6335 36.8335C68.64 30.5346 66.7778 24.3753 63.2825 19.1353C59.7871 13.8952 54.8158 9.80988 48.9976 7.39636C43.1795 4.98284 36.7761 4.34962 30.5979 5.57686C24.4198 6.80409 18.7446 9.8366 14.2906 14.2906C9.8366 18.7446 6.80409 24.4198 5.57686 30.5979C4.34962 36.7761 4.98284 43.1795 7.39636 48.9976C9.80988 54.8158 13.8952 59.7871 19.1353 63.2825C24.3753 66.7778 30.5346 68.64 36.8335 68.6335C40.0681 68.6422 43.2844 68.1474 46.3668 67.1668" stroke="white" stroke-width="2" stroke-miterlimit="10"/>
<path d="M14.1001 59.0999C17.0625 56.0732 20.599 53.6681 24.5026 52.0254C28.4062 50.3827 32.5983 49.5354 36.8334 49.5332C40.6727 49.5296 44.4802 50.23 48.0668 51.5999C48.9709 51.9263 49.8509 52.3162 50.7001 52.7666" stroke="white" stroke-width="2" stroke-miterlimit="10"/>
<path d="M14.1001 14.5332C17.3187 17.8528 21.2355 20.4147 25.5668 22.0332C29.1642 23.4056 32.9831 24.1061 36.8334 24.0999C40.6727 24.1035 44.4802 23.4031 48.0668 22.0332C52.398 20.4147 56.3149 17.8528 59.5334 14.5332" stroke="white" stroke-width="2" stroke-miterlimit="10"/>
<path d="M36.8334 68.6667C43.8659 68.6667 49.5668 54.4144 49.5668 36.8333C49.5668 19.2523 43.8659 5 36.8334 5C29.801 5 24.1001 19.2523 24.1001 36.8333C24.1001 54.4144 29.801 68.6667 36.8334 68.6667Z" stroke="white" stroke-width="2" stroke-miterlimit="10"/>
<path d="M36.8334 68.6667C43.8659 68.6667 49.5668 54.4144 49.5668 36.8333C49.5668 19.2523 43.8659 5 36.8334 5C29.801 5 24.1001 19.2523 24.1001 36.8333C24.1001 54.4144 29.801 68.6667 36.8334 68.6667Z" stroke="white" stroke-width="2" stroke-miterlimit="10"/>
<path d="M56.9 75H46.3667V64.4667C46.3667 59.6662 48.2736 55.0624 51.668 51.668C55.0624 48.2736 59.6662 46.3667 64.4667 46.3667H75V56.9C75 61.7004 73.093 66.3042 69.6986 69.6986C66.3042 73.093 61.7004 75 56.9 75Z" stroke="white" stroke-width="2" stroke-miterlimit="10"/>
<path d="M62.7334 58.6333L46.3667 75" stroke="white" stroke-width="2" stroke-miterlimit="10"/>
<path d="M5 36.8335H68.6333" stroke="white" stroke-width="2" stroke-miterlimit="10"/>
</svg>
