<svg width="70" height="70" viewBox="0 0 70 70" fill="none" xmlns="http://www.w3.org/2000/svg">
<path d="M29.4292 46.1416L35 40.5708L40.5709 46.1416" stroke="white" stroke-width="1.5" stroke-miterlimit="10" stroke-linecap="square"/>
<path d="M35 35V40.5708" stroke="white" stroke-width="1.5" stroke-miterlimit="10" stroke-linecap="square"/>
<path d="M34.9999 15.5166C37.2122 15.5166 39.334 16.3955 40.8983 17.9598C42.4627 19.5242 43.3415 21.6459 43.3415 23.8583V26.7749H26.6582V23.8583C26.6582 21.6459 27.5371 19.5242 29.1014 17.9598C30.6658 16.3955 32.7875 15.5166 34.9999 15.5166Z" stroke="white" stroke-width="1.5" stroke-miterlimit="10" stroke-linecap="square"/>
<path d="M35 15.5167C38.0767 15.5167 40.5709 13.0225 40.5709 9.94583C40.5709 6.86915 38.0767 4.375 35 4.375C31.9233 4.375 29.4292 6.86915 29.4292 9.94583C29.4292 13.0225 31.9233 15.5167 35 15.5167Z" stroke="white" stroke-width="1.5" stroke-miterlimit="10" stroke-linecap="square"/>
<path d="M57.2834 54.4834C59.4958 54.4834 61.6175 55.3623 63.1819 56.9267C64.7462 58.491 65.6251 60.6128 65.6251 62.8251V65.7418H48.9126V62.8251C48.9126 61.7272 49.1293 60.6401 49.5503 59.6261C49.9714 58.6122 50.5884 57.6913 51.3661 56.9163C52.1438 56.1414 53.0668 55.5275 54.0823 55.11C55.0977 54.6925 56.1855 54.4796 57.2834 54.4834Z" stroke="white" stroke-width="1.5" stroke-miterlimit="10" stroke-linecap="square"/>
<path d="M57.2832 54.4835C60.3599 54.4835 62.8541 51.9893 62.8541 48.9126C62.8541 45.8359 60.3599 43.3418 57.2832 43.3418C54.2065 43.3418 51.7124 45.8359 51.7124 48.9126C51.7124 51.9893 54.2065 54.4835 57.2832 54.4835Z" stroke="white" stroke-width="1.5" stroke-miterlimit="10" stroke-linecap="square"/>
<path d="M12.7167 54.4834C13.8121 54.4834 14.8968 54.6992 15.9089 55.1184C16.9209 55.5376 17.8405 56.152 18.6151 56.9266C19.3897 57.7012 20.0042 58.6208 20.4234 59.6328C20.8426 60.6449 21.0583 61.7296 21.0583 62.8251V65.7417H4.375V62.8251C4.375 60.6127 5.25385 58.491 6.81822 56.9266C8.38258 55.3623 10.5043 54.4834 12.7167 54.4834Z" stroke="white" stroke-width="1.5" stroke-miterlimit="10" stroke-linecap="square"/>
<path d="M12.7168 54.4835C15.7935 54.4835 18.2877 51.9893 18.2877 48.9126C18.2877 45.8359 15.7935 43.3418 12.7168 43.3418C9.64014 43.3418 7.146 45.8359 7.146 48.9126C7.146 51.9893 9.64014 54.4835 12.7168 54.4835Z" stroke="white" stroke-width="1.5" stroke-miterlimit="10" stroke-linecap="square"/>
</svg>
