<svg width="80" height="80" viewBox="0 0 80 80" fill="none" xmlns="http://www.w3.org/2000/svg">
<path d="M61.8002 78.3335C62.0075 66.9206 64.608 55.6782 69.4335 45.3335C70.9413 41.915 71.7678 38.2351 71.8668 34.5002C71.9962 26.9453 69.1752 19.6376 64.003 14.1293C58.8308 8.62098 51.7149 5.34607 44.1668 5.00017C40.3174 4.87044 36.4811 5.51689 32.8867 6.901C29.2923 8.28511 26.0133 10.3786 23.2451 13.0566C20.4768 15.7347 18.2759 18.9426 16.7735 22.4892C15.2711 26.0358 14.498 29.8485 14.5002 33.7002C14.5002 34.3668 14.5002 35.0002 14.5002 35.6335L8.60018 48.6002C8.26695 49.2854 8.09587 50.0382 8.10018 50.8002C8.10898 52.1824 8.66423 53.5049 9.64472 54.4792C10.6252 55.4534 11.9513 56.0002 13.3335 56.0002H14.5002V59.3335C14.4958 60.591 14.7402 61.837 15.2194 62.9997C15.6986 64.1624 16.4031 65.2188 17.2924 66.108C18.1816 66.9972 19.238 67.7017 20.4006 68.1809C21.5633 68.6601 22.8093 68.9046 24.0668 68.9002H30.4335V78.3335" stroke="white" stroke-width="2" stroke-miterlimit="10"/>
<path d="M30.4331 24.1333H38.6331C42.3727 24.1333 45.959 25.6188 48.6033 28.2631C51.2476 30.9074 52.7331 34.4937 52.7331 38.2333V46.4333H44.5664C42.712 46.4377 40.8749 46.0762 39.1604 45.3696C37.4458 44.663 35.8875 43.6251 34.5747 42.3153C33.2618 41.0056 32.2203 39.4497 31.5096 37.7368C30.7989 36.024 30.4331 34.1877 30.4331 32.3333V24.1333Z" stroke="white" stroke-width="2" stroke-miterlimit="10"/>
<path d="M59.1333 52.8335L40 33.7002" stroke="white" stroke-width="2" stroke-miterlimit="10"/>
</svg>
