<svg width="71" height="70" viewBox="0 0 71 70" fill="none" xmlns="http://www.w3.org/2000/svg">
<path d="M4.81689 23.8584H46.5836V44.9751C46.5836 50.4518 44.4079 55.7042 40.5353 59.5768C36.6627 63.4494 31.4103 65.6251 25.9336 65.6251H25.4669C19.9902 65.6251 14.7378 63.4494 10.8651 59.5768C6.99251 55.7042 4.81689 50.4518 4.81689 44.9751V23.8584Z" stroke="white" stroke-width="1.5" stroke-miterlimit="10"/>
<path d="M56.3252 47.5418C61.7053 47.5418 66.0668 43.0758 66.0668 37.5668C66.0668 32.0578 61.7053 27.5918 56.3252 27.5918C50.945 27.5918 46.5835 32.0578 46.5835 37.5668C46.5835 43.0758 50.945 47.5418 56.3252 47.5418Z" stroke="white" stroke-width="1.5" stroke-miterlimit="10"/>
<path d="M2.0166 65.625H49.3541" stroke="white" stroke-width="1.5" stroke-miterlimit="10"/>
<path d="M10.3877 4.375C15.2002 9.94583 8.34603 12.7167 13.1585 18.2875" stroke="white" stroke-width="1.5" stroke-miterlimit="10"/>
<path d="M24.2998 4.375C29.1123 9.94583 22.2581 12.7167 27.0706 18.2875" stroke="white" stroke-width="1.5" stroke-miterlimit="10"/>
<path d="M38.2124 4.375C43.0541 9.94583 36.1707 12.7167 41.1291 18.2875" stroke="white" stroke-width="1.5" stroke-miterlimit="10"/>
</svg>
