<svg width="733" height="354" viewBox="0 0 733 354" fill="none" xmlns="http://www.w3.org/2000/svg">
<path d="M280.71 110.33H293.14C295.26 110.33 297.08 110 298.58 109.34C300.08 108.68 301.24 107.74 302.04 106.53C302.85 105.32 303.25 103.84 303.25 102.08C303.25 99.44 302.37 97.46 300.61 96.14C298.85 94.82 296.36 94.16 293.13 94.16H285.43V142.34H294.89C297.31 142.34 299.47 142.03 301.38 141.41C303.29 140.79 304.81 139.76 305.94 138.33C307.08 136.9 307.65 134.94 307.65 132.44C307.65 130.83 307.32 129.43 306.66 128.26C306 127.09 305.08 126.13 303.91 125.4C302.74 124.67 301.4 124.13 299.89 123.81C298.39 123.48 296.72 123.32 294.89 123.32H280.7V113.2H296.98C300.72 113.2 304.35 113.6 307.87 114.41C311.39 115.22 314.58 116.52 317.44 118.32C320.3 120.12 322.59 122.39 324.32 125.14C326.04 127.89 326.9 131.21 326.9 135.09C326.9 140.22 325.67 144.37 323.21 147.52C320.75 150.67 317.29 153 312.82 154.5C308.35 156 303.07 156.76 296.98 156.76H266.84V79.76H295.11C300.46 79.76 305.18 80.48 309.24 81.91C313.31 83.34 316.54 85.5 318.92 88.4C321.3 91.3 322.49 94.95 322.49 99.35C322.49 103.38 321.3 106.83 318.92 109.69C316.54 112.55 313.31 114.73 309.24 116.23C305.17 117.73 300.46 118.49 295.11 118.49H280.7V110.35L280.71 110.33Z" fill="#303030"/>
<path d="M339.94 101.97C342.03 97.06 344.94 92.8 348.69 89.21C352.43 85.62 356.83 82.85 361.89 80.9C366.95 78.96 372.41 77.98 378.28 77.98C384.15 77.98 389.7 78.95 394.72 80.9C399.74 82.84 404.13 85.61 407.87 89.21C411.61 92.8 414.51 97.06 416.56 101.97C418.61 106.88 419.64 112.31 419.64 118.25C419.64 124.19 418.63 129.65 416.61 134.64C414.59 139.63 411.73 143.95 408.03 147.62C404.33 151.29 399.95 154.13 394.89 156.15C389.83 158.17 384.29 159.18 378.28 159.18C372.27 159.18 366.62 158.17 361.56 156.15C356.5 154.13 352.12 151.29 348.42 147.62C344.71 143.95 341.86 139.63 339.84 134.64C337.82 129.65 336.81 124.19 336.81 118.25C336.81 112.31 337.85 106.88 339.94 101.97ZM359.19 130.3C360.99 133.78 363.52 136.51 366.78 138.49C370.04 140.47 373.88 141.46 378.28 141.46C382.68 141.46 386.4 140.47 389.67 138.49C392.93 136.51 395.46 133.78 397.26 130.3C399.05 126.82 399.95 122.8 399.95 118.25C399.95 113.7 399.07 109.69 397.31 106.21C395.55 102.73 393.06 99.99 389.83 98.01C386.6 96.03 382.75 95.04 378.28 95.04C373.81 95.04 370.05 96.03 366.78 98.01C363.52 99.99 360.99 102.72 359.19 106.21C357.39 109.69 356.49 113.71 356.49 118.25C356.49 122.79 357.39 126.81 359.19 130.3Z" fill="#303030"/>
<path d="M451.43 79.75V156.75H432.84V79.75H451.43ZM444.5 79.75H460.89C467.49 79.75 472.99 80.81 477.39 82.94C481.79 85.07 485.13 88.02 487.4 91.79C489.67 95.57 490.81 99.95 490.81 104.94C490.81 109.93 489.67 114.2 487.4 117.97C485.13 121.75 481.79 124.7 477.39 126.82C472.99 128.95 467.49 130.01 460.89 130.01H444.5V115.6H459.57C462.06 115.6 464.21 115.21 466.01 114.44C467.8 113.67 469.18 112.53 470.13 111.03C471.08 109.53 471.56 107.71 471.56 105.58C471.56 103.45 471.08 101.64 470.13 100.14C469.17 98.64 467.8 97.48 466.01 96.68C464.21 95.87 462.07 95.47 459.57 95.47H444.5V79.74V79.75ZM471.34 121.88L495.43 156.75H473.65L452.09 121.88H471.34Z" fill="#303030"/>
<path d="M523.92 79.75V140.8H554.83V156.75H505.33V79.75H523.92Z" fill="#303030"/>
<path d="M582.77 79.75V130.13C582.77 134.02 583.8 137.17 585.85 139.59C587.9 142.01 590.98 143.22 595.09 143.22C599.2 143.22 602.39 142.01 604.44 139.59C606.49 137.17 607.52 134.02 607.52 130.13V79.75H626.11V131.45C626.11 136.29 625.32 140.51 623.74 144.1C622.16 147.69 619.96 150.65 617.14 152.95C614.32 155.26 611.02 157 607.24 158.18C603.46 159.35 599.41 159.94 595.08 159.94C590.75 159.94 586.72 159.35 582.98 158.18C579.24 157.01 575.96 155.26 573.14 152.95C570.32 150.64 568.12 147.69 566.54 144.1C564.96 140.51 564.17 136.29 564.17 131.45V79.75H582.76H582.77Z" fill="#303030"/>
<path d="M662.08 79.75V156.75H643.16V79.75H662.08Z" fill="#303030"/>
<path d="M671.97 79.75H732.91V96.36H711.68V156.75H693.09V96.36H671.97V79.75Z" fill="#303030"/>
<path d="M266.84 196.89H315.79V205.69H295.99V273.89H286.64V205.69H266.84V196.89Z" fill="#303030"/>
<path d="M335.04 196.89V273.89H325.69V196.89H335.04ZM330.86 196.89H369.69V205.69H330.86V196.89ZM330.86 227.69H367.49V236.49H330.86V227.69ZM330.86 265.09H369.69V273.89H330.86V265.09Z" fill="#303030"/>
<path d="M400.71 244.85L399.83 246.83L388.39 273.89H377.94L413.69 193.04L449.44 273.89H438.99L427.77 247.49L426.89 245.29L413.69 214.27L400.71 244.85ZM396.86 241.99H430.96L434.26 250.79H393.56L396.86 241.99Z" fill="#303030"/>
<path d="M175.73 146.28C172.71 146.47 168.95 146.7 163.53 147.33C161.37 147.58 158.57 148.68 157.37 150.31C156.84 151.03 156.67 151.78 156.83 152.61C157.25 154.77 162.75 155.52 166.53 155.37C172.44 155.13 175.06 155.16 183.73 155.3V145.6C182.54 145.73 181.27 145.85 179.92 145.98C178.65 146.1 177.29 146.18 175.72 146.28H175.73Z" fill="#303030"/>
<path d="M141.64 81.28C131.72 81.39 107.95 82.85 101.45 93.89C98.86 98.29 99.06 103 102.01 106.48C103.57 108.32 106.21 109.89 109.51 111.23C112.01 109.02 114.67 106.99 117.47 105.15C116.11 103.66 114.98 101.61 114.98 98.89C114.98 90.49 136.33 87.69 142.07 87.69C144.84 87.69 149.6 87.47 155.64 87.19C163.38 86.83 173.35 86.38 183.53 86.19C183.4 84.23 183.21 82.3 182.96 80.38C177.43 80.49 171 80.64 164.69 80.8C155.84 81.02 147.49 81.22 141.66 81.29L141.64 81.28Z" fill="#303030"/>
<path d="M103.06 19.57C101.84 19.77 100.58 19.97 99.3 20.18C87.74 22.01 73.36 24.3 73.12 32.26C73.04 34.97 77.05 38.76 83.66 40.15C87.1 40.88 90.09 41.61 92.59 42.43C95.36 33.11 103.99 26.31 114.21 26.31C126.67 26.31 136.77 36.41 136.77 48.87C136.77 61.33 126.67 71.43 114.21 71.43C104.57 71.43 96.35 65.38 93.12 56.88C89.82 57.92 85.5 58.78 80.15 59.46C69.13 60.86 41.45 61.34 19.84 61.34C14.77 61.34 10.05 61.31 5.94 61.27C2.42 71 0.5 81.49 0.5 92.43V107.28C2.06 107.33 3.57 107.38 5 107.42C17.07 107.79 25.05 108.03 34.11 109.37C34.41 109.41 41.9 110.42 47.6 113.34C51.33 115.25 51.99 117.71 52.05 119.01C52.13 120.77 51.24 122.41 49.66 123.41C44.99 126.36 44.1 128.07 44.21 129.71C44.37 132.04 45.74 134.07 48.42 135.93C53.09 139.17 55.64 140.18 58.87 141.47C60.42 142.09 62.18 142.79 64.4 143.82C71.82 147.27 73.19 151.81 73.34 154.21C73.54 157.2 72.79 159.79 71.72 161.99C77.35 169.79 81.39 178.83 83.32 188.62L84.61 114.16C65.53 112.84 50.47 96.94 50.47 77.53C60.61 77.53 69.79 81.64 76.43 88.29C83.06 94.92 87.16 104.06 87.19 114.17V114.26L87.82 148.9C90.51 135.44 97.16 123.41 106.49 114.07C106.99 113.57 107.49 113.09 108.01 112.6C104.8 111.21 102.21 109.58 100.59 107.68C97.16 103.63 96.88 97.99 99.85 92.95C106.58 81.52 128.91 79.57 141.63 79.43C147.45 79.36 155.8 79.16 164.64 78.94C170.87 78.79 177.22 78.63 182.7 78.53C178.75 52.6 163.93 30.24 143.04 16.25C119.89 16.77 108.83 18.62 103.08 19.58L103.06 19.57Z" fill="#303030"/>
<path d="M165.56 112.42C167.81 112.49 170.17 112.56 172.68 112.64L173.23 112.66C175.47 112.73 179.45 112.85 183.74 113.58V92.43C183.74 90.96 183.7 89.51 183.63 88.06C173.45 88.24 163.46 88.7 155.71 89.06C149.65 89.34 144.87 89.56 142.06 89.56C135.58 89.56 116.83 92.77 116.83 98.9C116.83 101.2 117.85 102.92 119.05 104.15C129.44 97.76 141.66 94.08 154.75 94.08C154.75 100.27 153.92 106.27 152.37 111.98C156.28 112.16 160.6 112.29 165.53 112.44L165.56 112.42Z" fill="#303030"/>
<path d="M159.28 141.09C157.26 141.43 155.43 141.73 153.74 142C146.31 143.21 141.83 143.94 137.08 145.68C132.33 147.42 128.46 151.34 128.46 154.41C128.46 161.42 138.95 163.87 147.76 164.69C154.6 165.33 167.76 165.23 179.37 165.15C180.87 165.14 182.33 165.13 183.74 165.12V157.15C175.08 157.01 172.48 156.98 166.61 157.22C166.45 157.22 166.1 157.24 165.63 157.24C162.88 157.24 155.77 156.86 155.01 152.96C154.75 151.63 155.05 150.33 155.88 149.2C157.47 147.03 160.76 145.76 163.33 145.47C168.8 144.84 172.58 144.6 175.63 144.42C177.18 144.32 178.53 144.24 179.77 144.12C181.21 143.98 182.53 143.86 183.75 143.72V115.46C179.46 114.7 175.42 114.58 173.18 114.52L172.63 114.5C170.13 114.42 167.76 114.35 165.52 114.28C160.45 114.13 155.97 113.99 151.89 113.79C151.39 115.45 150.83 117.09 150.21 118.7C150.29 118.7 150.37 118.72 150.45 118.72C152.75 118.93 154.41 119.09 155.33 119.22C166.31 120.82 173.01 124.68 173.72 129.8C174.45 135.06 168.79 139.49 159.3 141.09H159.28Z" fill="#303030"/>
<path d="M48.65 121.82C49.66 121.18 50.23 120.16 50.18 119.08C50.11 117.56 48.86 116.07 46.74 114.99C41.32 112.22 33.91 111.22 33.84 111.21C24.87 109.88 16.94 109.64 4.92999 109.27C3.50999 109.23 2.03 109.18 0.479996 109.13V114.73C12.13 114.38 18.76 114.36 24.7 114.64C26.59 114.73 31.41 115.13 35.2 116.88C36.88 117.66 37.98 119.16 38.06 120.8C38.14 122.51 37.14 124.11 35.29 125.19C30.09 128.24 30.09 129.84 30.09 131.12C30.09 132.4 30.27 133.56 32.46 135.54C44.83 138.54 55.88 144.9 64.59 153.61C66.67 155.69 68.61 157.92 70.42 160.26C71.15 158.5 71.61 156.52 71.46 154.32C71.24 150.89 68.44 147.75 63.59 145.49C61.42 144.48 59.69 143.79 58.16 143.18C54.82 141.85 52.18 140.8 47.34 137.44C44.21 135.27 42.53 132.7 42.34 129.81C42.16 127.04 43.92 124.8 48.65 121.81V121.82Z" fill="#303030"/>
<path d="M79.91 57.61C83 57.22 88.25 56.41 92.52 55.08C91.96 53.11 91.65 51.03 91.65 48.87C91.65 47.29 91.81 45.75 92.12 44.26C89.88 43.51 86.99 42.75 83.28 41.97C76.31 40.5 71.14 36.3 71.26 32.2C71.54 22.7 86.14 20.38 99.01 18.34C100.29 18.14 101.55 17.94 102.76 17.74C108.33 16.81 118.82 15.06 140.24 14.45C138.14 13.15 135.99 11.93 133.78 10.8C110.37 12 92.56 14.7 86.63 15.69C67.61 18.86 56.69 24.72 56.69 31.78C56.69 35.55 59.64 38.45 66.26 41.2C73.49 44.2 76.95 45.82 76.52 49.67C76 54.33 64.61 54.8 47.3 54.98C45.78 55 44.28 55.01 42.83 55.03C36.57 55.12 31.22 55.17 26.39 55.17C19.79 55.17 14.15 55.09 8.46001 54.96C7.80001 56.42 7.19 57.91 6.61 59.41C27.76 59.62 66.51 59.32 79.89 57.62L79.91 57.61Z" fill="#303030"/>
<path d="M19.07 44.68C21.36 44.75 23.91 44.83 27.09 44.91C45.63 45.42 48.3 41.95 48.68 40.87C49.22 39.33 47.25 37.54 46.03 36.62C42.75 34.13 40.39 32.33 40.43 29.11C40.61 17.43 70.37 9.33 90.34 6.74C96.29 5.97 105.79 5.17 118.3 4.6C110 2.13 101.22 0.800003 92.12 0.800003C59.07 0.800003 30.11 18.3 13.99 44.54C15.64 44.59 17.27 44.63 19.07 44.69V44.68Z" fill="#303030"/>
<path d="M183.74 172.9V166.99C182.33 166.99 180.88 167.01 179.38 167.02C175.31 167.05 171.05 167.08 166.94 167.08C159.27 167.08 152.1 166.97 147.59 166.55C133.66 165.25 126.6 161.17 126.6 154.41C126.6 150.11 131.61 145.7 136.44 143.93C141.35 142.13 145.9 141.39 153.44 140.16C155.12 139.89 156.95 139.59 158.97 139.25C167.24 137.86 172.42 134.16 171.85 130.05C171.27 125.87 164.99 122.51 155.04 121.06C154.17 120.93 152.44 120.77 150.26 120.57C150 120.55 149.73 120.52 149.46 120.5C139.32 144.62 115.72 161.7 88.06 162.32L89.05 217.08L82.75 221.36L83.09 201.88C63.91 201.46 46.69 193.14 34.54 180.04C25.67 180.45 15.61 180.55 7.17 180.63C4.75 180.65 2.52 180.68 0.5 180.7V202.33C6.32 203.15 13.68 204.97 17.77 206.91C19.8 207.87 21.63 208.76 23.31 209.62C23.24 209.72 23.14 209.84 23.02 209.96C18.06 214.03 8.56 214.66 2.27 215.48C6.08 215.75 9.90001 216.05 13.74 215.97C17.8 215.83 22.2 215.56 25.57 212.95C26.14 212.48 26.58 212 26.91 211.52C31.88 214.21 35.77 216.64 40.6 219.62C41.69 220.55 42.67 221.74 42.83 223C42.9 224.73 40.91 225.86 39.51 226.65C34.58 228.93 28.86 229.41 23.44 230.13C19.84 230.55 16.2 230.8 12.59 231.19C16.22 231.26 19.86 231.48 23.51 231.53C29.31 231.53 35.27 231.78 40.96 229.96C44.83 228.41 46.69 226.02 46.91 223.44C47.67 223.89 48.46 224.36 49.28 224.84C53.59 227.37 61.82 232.47 67.01 235.8C61.35 239.48 54.84 241.47 48.39 242.59C49.57 246.79 51.77 251.22 55.81 254.52C59.22 257.31 62.91 258.44 68.01 260C70.5 260.77 72.83 261.32 74.89 261.72C74.92 261.72 74.94 261.72 74.96 261.73C77.54 262.18 80.15 262.48 82.76 262.6C92.75 263.06 102.77 263.08 112.77 262.81C126.26 262.48 139.73 261.36 153.28 263.22C163.69 264.69 173.78 268.15 183.07 273.09C183.5 269.48 183.73 265.8 183.73 262.07V256.55C144.84 256.56 109.7 256.72 70.99 252.96C65.08 252.39 58.27 252.08 54.46 247.54C66.48 240.15 78.25 230.99 90.08 221.66C89.71 227.23 93.87 231.9 98.68 234.1C103.25 236.32 108.29 237.15 113.27 237.68C129.78 239.53 146.27 237.89 162.75 237.07C147.36 236.81 131.78 237.38 116.55 234.97C111.12 234.05 105.27 233.29 100.37 230.77C95.97 228.6 92.51 224.08 95.06 219.2C95.65 218.04 96.41 216.99 97.27 216C101.55 212.63 105.84 209.29 110.16 206.03C110.14 208.07 110.71 210.06 112.05 211.66C116.88 217 128.41 217.98 135.2 218.21C137.71 218.19 140.42 218.17 142.92 218.07C151.72 217.81 160.48 216.37 169.08 214.71C160.36 215.51 151.67 216.08 142.95 215.47C137.25 215.01 131.43 214.77 125.83 213.69C122.43 212.97 119.16 212.07 116.39 210.18C116.09 209.97 115.7 209.65 115.46 209.38C113.42 207.15 114.7 203.15 116.76 201.16C119.52 199.18 122.28 197.25 125.07 195.38C126.71 194.28 128.37 193.21 130.04 192.16C131 195.69 135.35 197.04 138.53 197.81C150.68 200.7 164.1 199.38 176.21 196.96C167.99 197.83 159.62 197.85 151.43 196.84C146.38 196.21 141.47 195.01 136.84 193.12C134.6 192.11 133.79 191.44 134.59 189.39C149.83 180.4 166.11 173.87 183.74 172.86V172.9Z" fill="#303030"/>
<path d="M32.93 178.26C31.09 176.13 29.38 173.9 27.81 171.55H26.21C23.59 171.58 20.58 171.6 17.04 171.6C12.52 171.6 7.11 171.56 0.479996 171.44V178.85C2.5 178.82 4.72 178.8 7.14 178.78C15.08 178.7 24.48 178.61 32.93 178.26Z" fill="#303030"/>
<path d="M30.47 46.83C29.31 46.83 28.15 46.81 27.03 46.78C23.85 46.69 21.3 46.62 19.01 46.55C16.84 46.48 14.9 46.43 12.89 46.37C11.61 48.56 10.43 50.81 9.33 53.11C18.89 53.32 28.44 53.38 42.81 53.17C44.27 53.15 45.77 53.13 47.29 53.12C53.91 53.05 60.76 52.98 66.09 52.4C73.63 51.59 74.61 50.07 74.68 49.46C74.94 47.16 72.97 46 65.55 42.92C60.95 41.01 54.83 37.78 54.83 31.78C54.83 23.61 66.01 17.24 86.32 13.86C91.99 12.92 108.47 10.41 130.31 9.13C128.03 8.08 125.69 7.12 123.31 6.26C108.41 6.83 97.24 7.73 90.57 8.6C66.94 11.67 42.42 20.2 42.28 29.15C42.25 31.34 43.83 32.64 47.14 35.15C50.74 37.88 50.91 40.11 50.42 41.5C48.91 45.78 39.38 46.83 30.47 46.83Z" fill="#303030"/>
<path d="M26.2 169.71H26.62C20.09 159.24 16.32 146.87 16.32 133.63C20.78 133.63 25.13 134.06 29.35 134.88C28.43 133.57 28.25 132.46 28.25 131.15C28.25 128.65 29.25 126.61 34.37 123.61C35.61 122.88 36.27 121.92 36.22 120.91C36.17 119.97 35.49 119.08 34.44 118.59C30.95 116.98 26.42 116.61 24.63 116.52C18.72 116.24 12.13 116.26 0.490005 116.61V169.59C12.31 169.82 20.25 169.76 26.2 169.71Z" fill="#303030"/>
<path d="M43.43 323.91C41.08 321.38 38.2 319.02 35.62 316.48C32.1 312.84 28 310.05 24.3 306.46C21.06 303.42 18.27 299.88 15.68 296.29C11.26 290.39 7.57999 283.71 6.00999 276.45C5.38999 274.1 4.98 271.76 4.77 269.44C4.23 265 4.26001 259.42 6.32001 253.36C7.48001 249.93 9.05999 246.98 10.79 244.48C7.07999 244.46 3.36 244.42 0.5 244.4V262.12C0.5 298.73 21.97 330.32 53.01 344.99C52.33 337.12 49.3 329.86 43.45 323.92L43.43 323.91Z" fill="#303030"/>
<path d="M118.86 287.49C101.56 283.77 83.76 281.79 66.79 276.64C64.25 275.8 61.8 274.76 59.38 273.64C59.35 273.62 59.31 273.61 59.27 273.59C53.94 271.27 48.15 268.41 43.57 262.29C40.3 257.92 38.82 253.54 38.16 250.63C37.65 248.41 37.4 246.13 37.39 243.85C35.67 243.96 33.99 244.03 32.38 244.09C31.2 250.31 30.98 258.54 35.04 266.13C37.51 270.76 40.92 273.93 44.9 277.08C46.96 278.67 49.09 280.22 51.26 281.59C54.18 283.41 57.29 284.96 60.43 286.47C66.73 289.44 73.16 292.22 79.66 294.69C82.91 295.9 86.27 297.12 89.54 298.53C113.05 308.04 128.62 319.22 138.33 341.22C149.43 334.72 159.03 325.95 166.51 315.55C154.27 299.87 138.89 291.32 118.82 287.49H118.86Z" fill="#303030"/>
<path d="M85.49 349.48C84.6 341.69 82.48 333.82 77.34 327.78C74.64 324.55 71.34 322.08 67.85 319.56C57.47 311.99 45.84 306.21 35.99 297.87C30.99 293.57 27.07 288.27 23.71 282.6C22.48 280.43 21.44 278.17 20.62 275.86C20.6 275.82 20.59 275.79 20.58 275.75C19.87 273.87 19.25 271.82 18.78 269.59C18.21 266.84 16.68 259.53 19.2 250.58C19.8 248.47 20.58 246.43 21.52 244.47C19.2 244.5 16.19 244.51 13.04 244.49C11.11 247.08 9.32001 250.22 8.05001 253.96C6.10001 259.75 6.08001 265.09 6.61001 269.34C7.80001 277.13 10.84 284.65 15.63 290.93C19.02 295.39 22.66 299.91 26.93 303.56C30.12 306.36 33.87 308.76 37.17 311.6C38.25 312.52 39.3 313.53 40.42 314.44C47.76 320.23 54.2 326.46 57.4 335.61C58.8 339.56 59.55 343.7 59.8 347.87C67.98 350.95 76.72 352.9 85.82 353.51C85.74 352.16 85.63 350.81 85.48 349.47L85.49 349.48Z" fill="#303030"/>
<path d="M114.4 317.98C101.13 306.62 84.34 300.9 68.74 293.55C62.37 290.45 56.01 287.38 50.09 283.43C47.97 281.97 45.99 280.4 44.04 278.78C44.01 278.76 43.99 278.74 43.96 278.72C39.73 275.39 36.08 272.04 33.4 267.02C29.18 259.13 29.31 250.64 30.48 244.17C28.33 244.24 26.31 244.3 24.5 244.39C24.24 244.4 23.94 244.42 23.62 244.43C22.53 246.55 21.64 248.78 20.99 251.1C18.59 259.61 20.05 266.6 20.6 269.22C20.91 270.7 21.29 272.11 21.73 273.44C21.73 273.46 21.75 273.49 21.75 273.51C23.77 279.11 27.01 284.42 31.26 289.04C35.25 293.95 40.36 297.55 45.69 300.89C53.89 305.95 62.46 310.34 70.52 315.65C79.93 321.63 86.09 327.91 89.6 338.77C91.2 343.65 92.08 348.68 92.61 353.74C106.92 353.66 120.45 350.3 132.5 344.38C128.59 334.32 122.64 325.04 114.4 317.99V317.98Z" fill="#303030"/>
<path d="M152.44 268.42C139.49 266.06 126.02 266.59 112.8 266.33C102.72 266.16 92.66 265.7 82.61 264.8C80.23 264.6 77.88 264.24 75.56 263.76C73.21 263.34 70.46 262.72 67.47 261.8C62.37 260.23 58.34 259 54.64 255.98C50.18 252.34 47.8 247.47 46.55 242.91C44.09 243.28 41.64 243.53 39.27 243.71C39.27 245.9 39.51 248.09 39.99 250.21C40.61 252.94 42 257.06 45.07 261.16C49.45 267.01 55.12 269.75 60.31 272C62.64 272.96 65.01 273.85 67.44 274.54C84.51 278.96 102.33 280.2 119.68 283.19C140.34 286.23 156.96 294.53 170.43 309.68C175.88 300.72 179.84 290.75 181.96 280.12C172.93 274.47 162.93 270.37 152.43 268.42H152.44Z" fill="#303030"/>
<path d="M86.47 113.51V113.63C85.36 113.63 84.25 113.59 83.16 113.51C58.64 111.81 39.28 91.38 39.28 66.42C52.32 66.42 64.12 71.7 72.65 80.25C81.17 88.77 86.45 100.52 86.48 113.51H86.47Z" fill="white"/>
</svg>
