<svg width="129" height="63" viewBox="0 0 129 63" fill="none" xmlns="http://www.w3.org/2000/svg">
<path d="M49.2912 19.2653H51.4776C51.8505 19.2653 52.1706 19.2073 52.4345 19.0912C52.6983 18.9751 52.9024 18.8097 53.0431 18.5969C53.1856 18.3841 53.2559 18.1237 53.2559 17.8142C53.2559 17.3498 53.1011 17.0015 52.7915 16.7693C52.482 16.5372 52.044 16.4211 51.4759 16.4211H50.1215V24.8957H51.7854C52.2111 24.8957 52.591 24.8412 52.927 24.7321C53.2629 24.6231 53.5303 24.4419 53.7291 24.1904C53.9296 23.9388 54.0298 23.5941 54.0298 23.1543C54.0298 22.8712 53.9718 22.6249 53.8557 22.4191C53.7396 22.2133 53.5778 22.0444 53.372 21.916C53.1662 21.7876 52.9305 21.6927 52.6649 21.6364C52.4011 21.5783 52.1073 21.5502 51.7854 21.5502H49.2895V19.7701H52.153C52.8109 19.7701 53.4494 19.8405 54.0685 19.983C54.6877 20.1254 55.2488 20.3541 55.7519 20.6707C56.2549 20.9873 56.6577 21.3866 56.962 21.8703C57.2646 22.354 57.4158 22.938 57.4158 23.6205C57.4158 24.5228 57.1995 25.2528 56.7668 25.8069C56.3341 26.3609 55.7255 26.7708 54.9392 27.0346C54.153 27.2984 53.2243 27.4321 52.153 27.4321H46.8516V13.8882H51.8241C52.7652 13.8882 53.5954 14.0148 54.3095 14.2664C55.0254 14.5179 55.5936 14.8978 56.0122 15.4079C56.4308 15.918 56.6401 16.56 56.6401 17.334C56.6401 18.0428 56.4308 18.6497 56.0122 19.1527C55.5936 19.6558 55.0254 20.0392 54.3095 20.3031C53.5936 20.5669 52.7652 20.7006 51.8241 20.7006H49.2895V19.2688L49.2912 19.2653Z" fill="#D8BB7B"/>
<path d="M59.7097 17.7949C60.0774 16.9313 60.5892 16.182 61.2488 15.5505C61.9067 14.919 62.6806 14.4318 63.5706 14.0888C64.4607 13.7476 65.4211 13.5752 66.4536 13.5752C67.4861 13.5752 68.4623 13.7458 69.3453 14.0888C70.2283 14.43 71.0005 14.9173 71.6583 15.5505C72.3161 16.182 72.8262 16.9313 73.1868 17.7949C73.5474 18.6586 73.7286 19.6137 73.7286 20.6585C73.7286 21.7033 73.5509 22.6637 73.1956 23.5414C72.8403 24.4191 72.3373 25.179 71.6864 25.8245C71.0356 26.4701 70.2652 26.9696 69.3752 27.3249C68.4852 27.6802 67.5107 27.8579 66.4536 27.8579C65.3964 27.8579 64.4026 27.6802 63.5126 27.3249C62.6226 26.9696 61.8521 26.4701 61.2013 25.8245C60.5488 25.179 60.0475 24.4191 59.6921 23.5414C59.3368 22.6637 59.1592 21.7033 59.1592 20.6585C59.1592 19.6137 59.3421 18.6586 59.7097 17.7949ZM63.0957 22.778C63.4123 23.3902 63.8573 23.8703 64.4308 24.2186C65.0042 24.5669 65.6796 24.741 66.4536 24.741C67.2275 24.741 67.8818 24.5669 68.457 24.2186C69.0304 23.8703 69.4754 23.3902 69.7921 22.778C70.1069 22.1659 70.2652 21.4588 70.2652 20.6585C70.2652 19.8582 70.1104 19.1528 69.8008 18.5407C69.4913 17.9286 69.0533 17.4467 68.4852 17.0984C67.917 16.7501 67.2398 16.576 66.4536 16.576C65.6673 16.576 65.0059 16.7501 64.4308 17.0984C63.8573 17.4467 63.4123 17.9268 63.0957 18.5407C62.7791 19.1528 62.6208 19.8599 62.6208 20.6585C62.6208 21.4571 62.7791 22.1642 63.0957 22.778Z" fill="#D8BB7B"/>
<path d="M79.3202 13.8865V27.4305H76.0503V13.8865H79.3202ZM78.1012 13.8865H80.9842C82.1451 13.8865 83.1125 14.073 83.8864 14.4476C84.6604 14.8223 85.2479 15.3412 85.6471 16.0043C86.0464 16.6692 86.2469 17.4396 86.2469 18.3173C86.2469 19.195 86.0464 19.9461 85.6471 20.6092C85.2479 21.2741 84.6604 21.793 83.8864 22.1659C83.1125 22.5406 82.1451 22.727 80.9842 22.727H78.1012V20.1924H80.752C81.19 20.1924 81.5681 20.1238 81.8847 19.9883C82.1996 19.8529 82.4423 19.6524 82.6094 19.3885C82.7765 19.1247 82.861 18.8046 82.861 18.4299C82.861 18.0552 82.7765 17.7369 82.6094 17.473C82.4406 17.2092 82.1996 17.0051 81.8847 16.8644C81.5681 16.722 81.1917 16.6516 80.752 16.6516H78.1012V13.8848V13.8865ZM82.8223 21.297L87.0596 27.4305H83.2286L79.4363 21.297H82.8223Z" fill="#D8BB7B"/>
<path d="M92.0707 13.8867V24.6251H97.5076V27.4307H88.8008V13.8867H92.0707Z" fill="#D8BB7B"/>
<path d="M102.422 13.8867V22.7483C102.422 23.4326 102.603 23.9866 102.964 24.4123C103.324 24.838 103.866 25.0508 104.589 25.0508C105.312 25.0508 105.873 24.838 106.234 24.4123C106.594 23.9866 106.775 23.4326 106.775 22.7483V13.8867H110.045V22.9805C110.045 23.8318 109.906 24.5741 109.628 25.2056C109.351 25.837 108.964 26.3577 108.468 26.7623C107.972 27.1686 107.391 27.4746 106.726 27.6822C106.061 27.888 105.349 27.9918 104.587 27.9918C103.826 27.9918 103.117 27.888 102.459 27.6822C101.801 27.4764 101.224 27.1686 100.728 26.7623C100.232 26.3559 99.8452 25.837 99.5673 25.2056C99.2893 24.5741 99.1504 23.8318 99.1504 22.9805V13.8867H102.42H102.422Z" fill="#D8BB7B"/>
<path d="M116.372 13.8867V27.4307H113.044V13.8867H116.372Z" fill="#D8BB7B"/>
<path d="M118.112 13.8867H128.831V16.8083H125.097V27.4307H121.827V16.8083H118.112V13.8867Z" fill="#D8BB7B"/>
<path d="M46.8516 36.6689H55.4616V38.2168H51.9789V50.2129H50.3343V38.2168H46.8516V36.6689Z" fill="#D8BB7B"/>
<path d="M58.8477 36.6689V50.2129H57.2031V36.6689H58.8477ZM58.1125 36.6689H64.9425V38.2168H58.1125V36.6689ZM58.1125 42.0865H64.5555V43.6344H58.1125V42.0865ZM58.1125 48.665H64.9425V50.2129H58.1125V48.665Z" fill="#D8BB7B"/>
<path d="M70.3987 45.1048L70.2439 45.4531L68.2317 50.2128H66.3936L72.6818 35.9917L78.9701 50.2128H77.132L75.1584 45.5692L75.0036 45.1822L72.6818 39.726L70.3987 45.1048ZM69.7215 44.6018H75.7195L76.3 46.1497H69.141L69.7215 44.6018Z" fill="#D8BB7B"/>
<path d="M30.8258 25.5893C30.2946 25.6228 29.6332 25.6632 28.6799 25.774C28.2999 25.818 27.8074 26.0115 27.5964 26.2982C27.5031 26.4248 27.4732 26.5568 27.5014 26.7027C27.5752 27.0827 28.5427 27.2146 29.2076 27.1882C30.2471 27.146 30.7079 27.1513 32.233 27.1759V25.4697C32.0236 25.4926 31.8003 25.5137 31.5628 25.5366C31.3394 25.5577 31.1002 25.5717 30.824 25.5893H30.8258Z" fill="#D8BB7B"/>
<path d="M24.8295 14.1564C23.0846 14.1757 18.9036 14.4325 17.7603 16.3744C17.3047 17.1483 17.3399 17.9768 17.8588 18.5889C18.1332 18.9126 18.5975 19.1887 19.178 19.4244C19.6177 19.0357 20.0856 18.6786 20.5781 18.355C20.3389 18.0929 20.1401 17.7323 20.1401 17.2539C20.1401 15.7763 23.8955 15.2838 24.9051 15.2838C25.3924 15.2838 26.2296 15.2451 27.292 15.1959C28.6535 15.1326 30.4071 15.0534 32.1978 15.02C32.1749 14.6752 32.1415 14.3358 32.0975 13.998C31.1248 14.0174 29.9938 14.0438 28.8839 14.0719C27.3272 14.1106 25.8585 14.1458 24.833 14.1581L24.8295 14.1564Z" fill="#D8BB7B"/>
<path d="M18.0432 3.30175C17.8286 3.33692 17.607 3.3721 17.3819 3.40904C15.3485 3.73093 12.8191 4.13373 12.7769 5.53386C12.7629 6.01053 13.4682 6.67718 14.6309 6.92167C15.236 7.05007 15.7619 7.17848 16.2016 7.32271C16.6888 5.68337 18.2068 4.48728 20.0045 4.48728C22.1961 4.48728 23.9727 6.26382 23.9727 8.45548C23.9727 10.6471 22.1961 12.4237 20.0045 12.4237C18.3088 12.4237 16.863 11.3595 16.2948 9.8644C15.7144 10.0473 14.9545 10.1986 14.0135 10.3182C12.0751 10.5645 7.20633 10.6489 3.40523 10.6489C2.51344 10.6489 1.68322 10.6436 0.960289 10.6366C0.341137 12.348 0.00341797 14.1932 0.00341797 16.1175V18.7295C0.277815 18.7383 0.543417 18.7471 0.794947 18.7541C2.918 18.8192 4.32165 18.8614 5.91526 19.0971C5.96803 19.1042 7.28548 19.2818 8.28809 19.7954C8.94418 20.1314 9.06027 20.5641 9.07082 20.7928C9.08489 21.1024 8.92835 21.3908 8.65043 21.5667C7.829 22.0856 7.67245 22.3864 7.6918 22.6749C7.71995 23.0847 7.96092 23.4418 8.43232 23.7689C9.25375 24.3388 9.70228 24.5165 10.2704 24.7434C10.5431 24.8524 10.8526 24.9756 11.2431 25.1567C12.5483 25.7636 12.7892 26.5621 12.8156 26.9843C12.8508 27.5102 12.7189 27.9658 12.5307 28.3528C13.521 29.7247 14.2316 31.3148 14.5711 33.0368L14.798 19.9397C11.4419 19.7075 8.79291 16.9108 8.79291 13.4966C10.5765 13.4966 12.1912 14.2196 13.3591 15.3893C14.5253 16.5555 15.2465 18.1631 15.2518 19.9414V19.9573L15.3626 26.0503C15.8358 23.6827 17.0055 21.5667 18.6466 19.9239C18.7345 19.8359 18.8225 19.7515 18.9139 19.6653C18.3493 19.4208 17.8937 19.1341 17.6088 18.7999C17.0055 18.0875 16.9562 17.0955 17.4786 16.2089C18.6624 14.1985 22.5901 13.8555 24.8275 13.8308C25.8512 13.8185 27.32 13.7833 28.8749 13.7447C29.9707 13.7183 31.0876 13.6901 32.0515 13.6725C31.3568 9.11157 28.75 5.17855 25.0755 2.71777C21.0036 2.80924 19.0582 3.13465 18.0468 3.30351L18.0432 3.30175Z" fill="#D8BB7B"/>
<path d="M29.0367 19.6334C29.4325 19.6458 29.8476 19.6581 30.2891 19.6721L30.3858 19.6757C30.7798 19.688 31.4799 19.7091 32.2345 19.8375V16.1173C32.2345 15.8587 32.2275 15.6037 32.2151 15.3486C30.4245 15.3803 28.6673 15.4612 27.3041 15.5245C26.2382 15.5738 25.3974 15.6125 24.9032 15.6125C23.7634 15.6125 20.4653 16.1771 20.4653 17.2553C20.4653 17.6599 20.6447 17.9624 20.8558 18.1788C22.6834 17.0548 24.8328 16.4075 27.1353 16.4075C27.1353 17.4963 26.9893 18.5517 26.7167 19.556C27.4044 19.5877 28.1643 19.6106 29.0314 19.637L29.0367 19.6334Z" fill="#D8BB7B"/>
<path d="M27.9323 24.676C27.577 24.7358 27.2551 24.7885 26.9579 24.836C25.651 25.0489 24.8629 25.1773 24.0274 25.4833C23.1919 25.7894 22.5112 26.4789 22.5112 27.0189C22.5112 28.2519 24.3564 28.6829 25.906 28.8271C27.1091 28.9397 29.4239 28.9221 31.4661 28.908C31.7299 28.9062 31.9867 28.9045 32.2347 28.9027V27.5008C30.7115 27.4762 30.2541 27.4709 29.2216 27.5132C29.1935 27.5132 29.1319 27.5167 29.0493 27.5167C28.5655 27.5167 27.3149 27.4498 27.1813 26.7638C27.1355 26.5299 27.1883 26.3012 27.3343 26.1025C27.614 25.7208 28.1926 25.4974 28.6447 25.4464C29.6068 25.3356 30.2717 25.2934 30.8082 25.2617C31.0809 25.2441 31.3183 25.23 31.5364 25.2089C31.7897 25.1843 32.0219 25.1632 32.2365 25.1386V20.1678C31.4819 20.0341 30.7713 20.013 30.3773 20.0024L30.2805 19.9989C29.8408 19.9848 29.4239 19.9725 29.0299 19.9602C28.1381 19.9338 27.3501 19.9092 26.6325 19.874C26.5445 20.166 26.446 20.4545 26.337 20.7377C26.351 20.7377 26.3651 20.7412 26.3792 20.7412C26.7837 20.7781 27.0757 20.8063 27.2375 20.8291C29.1689 21.1106 30.3474 21.7895 30.4723 22.6901C30.6007 23.6153 29.6051 24.3945 27.9358 24.676H27.9323Z" fill="#D8BB7B"/>
<path d="M8.47288 21.2868C8.65053 21.1742 8.75079 20.9948 8.742 20.8048C8.72968 20.5375 8.50982 20.2754 8.13692 20.0854C7.18357 19.5982 5.88018 19.4223 5.86787 19.4206C4.29009 19.1866 2.89524 19.1444 0.782734 19.0793C0.532962 19.0723 0.272638 19.0635 0 19.0547V20.0397C2.04918 19.9781 3.21537 19.9746 4.26018 20.0239C4.59263 20.0397 5.44044 20.1101 6.10709 20.4179C6.40259 20.5551 6.59607 20.8189 6.61015 21.1074C6.62422 21.4082 6.44832 21.6896 6.12292 21.8796C5.20826 22.416 5.20826 22.6975 5.20826 22.9226C5.20826 23.1478 5.23992 23.3518 5.62513 23.7001C7.80096 24.2278 9.7446 25.3465 11.2766 26.8785C11.6425 27.2444 11.9837 27.6366 12.3021 28.0482C12.4305 27.7386 12.5114 27.3904 12.4851 27.0034C12.4464 26.4001 11.9538 25.8478 11.1008 25.4502C10.7191 25.2726 10.4148 25.1512 10.1456 25.0439C9.55815 24.81 9.09379 24.6253 8.24245 24.0343C7.6919 23.6526 7.3964 23.2005 7.36298 22.6922C7.33132 22.205 7.64089 21.811 8.47288 21.285V21.2868Z" fill="#D8BB7B"/>
<path d="M13.9713 9.99245C14.5148 9.92385 15.4382 9.78137 16.1893 9.54743C16.0908 9.20092 16.0363 8.83506 16.0363 8.45512C16.0363 8.17721 16.0644 7.90633 16.1189 7.64424C15.7249 7.51232 15.2166 7.37864 14.564 7.24145C13.338 6.98288 12.4286 6.24412 12.4498 5.52295C12.499 3.85194 15.0671 3.44386 17.3309 3.08504C17.556 3.04986 17.7776 3.01468 17.9905 2.9795C18.9702 2.81592 20.8153 2.5081 24.583 2.40081C24.2136 2.17214 23.8355 1.95755 23.4467 1.75879C19.329 1.96986 16.1963 2.44478 15.1533 2.61892C11.8077 3.17651 9.88696 4.20725 9.88696 5.44907C9.88696 6.1122 10.4059 6.62229 11.5703 7.10601C12.842 7.63369 13.4506 7.91864 13.375 8.59584C13.2835 9.41551 11.2801 9.49818 8.23531 9.52984C7.96794 9.53336 7.7041 9.53512 7.44905 9.53864C6.34795 9.55447 5.40691 9.56326 4.55733 9.56326C3.39643 9.56326 2.40438 9.54919 1.40353 9.52633C1.28744 9.78313 1.18014 10.0452 1.07812 10.3091C4.79831 10.346 11.6143 10.2932 13.9677 9.99421L13.9713 9.99245Z" fill="#D8BB7B"/>
<path d="M3.27001 7.71828C3.67281 7.7306 4.12134 7.74467 4.68069 7.75874C7.94179 7.84845 8.41143 7.23809 8.47827 7.04812C8.57325 6.77724 8.22674 6.46239 8.01215 6.30057C7.43521 5.86259 7.0201 5.54598 7.02713 4.9796C7.05879 2.92514 12.2934 1.50039 15.8061 1.04482C16.8526 0.909378 18.5237 0.768662 20.7241 0.668401C19.2642 0.23394 17.7198 0 16.1192 0C10.3058 0 5.2119 3.07817 2.37646 7.69366C2.66669 7.70245 2.9534 7.70949 3.27001 7.72004V7.71828Z" fill="#D8BB7B"/>
<path d="M32.2345 30.2716V29.2321C31.9865 29.2321 31.7314 29.2356 31.4676 29.2373C30.7517 29.2426 30.0024 29.2479 29.2794 29.2479C27.9303 29.2479 26.6691 29.2285 25.8759 29.1547C23.4256 28.926 22.1838 28.2084 22.1838 27.0193C22.1838 26.2629 23.0651 25.4872 23.9146 25.1759C24.7783 24.8593 25.5786 24.7291 26.9048 24.5128C27.2003 24.4653 27.5222 24.4125 27.8775 24.3527C29.3322 24.1082 30.2433 23.4574 30.1431 22.7345C30.0411 21.9992 28.9364 21.4082 27.1863 21.1532C27.0333 21.1303 26.729 21.1022 26.3455 21.067C26.2998 21.0635 26.2523 21.0582 26.2048 21.0547C24.4212 25.2973 20.2701 28.3016 15.4048 28.4106L15.5789 38.0427L14.4708 38.7955L14.5306 35.369C11.1569 35.2952 8.12802 33.8317 5.99089 31.5275C4.4307 31.5996 2.6612 31.6172 1.17664 31.6313C0.750973 31.6348 0.358726 31.6401 0.00341797 31.6436V35.4482C1.02713 35.5924 2.32172 35.9126 3.04113 36.2538C3.3982 36.4227 3.72009 36.5792 4.01559 36.7305C4.00328 36.7481 3.98569 36.7692 3.96458 36.7903C3.09214 37.5062 1.42113 37.617 0.314753 37.7612C0.984914 37.8087 1.65683 37.8615 2.33227 37.8474C3.04641 37.8228 3.82035 37.7753 4.41311 37.3162C4.51337 37.2335 4.59077 37.1491 4.64881 37.0647C5.52301 37.5378 6.20725 37.9653 7.05682 38.4894C7.24855 38.653 7.42092 38.8623 7.44907 39.084C7.46138 39.3883 7.11135 39.587 6.86509 39.726C5.99793 40.127 4.99181 40.2114 4.03846 40.3381C3.40523 40.412 2.76497 40.4559 2.12999 40.5245C2.76849 40.5369 3.40875 40.5755 4.05077 40.5843C5.07096 40.5843 6.1193 40.6283 7.12014 40.3082C7.80086 40.0355 8.12802 39.6152 8.16672 39.1614C8.3004 39.2405 8.43936 39.3232 8.58359 39.4076C9.3417 39.8526 10.7893 40.7497 11.7022 41.3354C10.7066 41.9827 9.56157 42.3327 8.42704 42.5297C8.6346 43.2685 9.02157 44.0477 9.73219 44.6282C10.332 45.1189 10.981 45.3177 11.8781 45.5921C12.3161 45.7275 12.7259 45.8243 13.0883 45.8946C13.0935 45.8946 13.0971 45.8946 13.1006 45.8964C13.5544 45.9755 14.0135 46.0283 14.4726 46.0494C16.2298 46.1303 17.9922 46.1338 19.7512 46.0863C22.124 46.0283 24.4933 45.8313 26.8767 46.1585C28.7078 46.417 30.4826 47.0256 32.1166 47.8946C32.1923 47.2596 32.2327 46.6123 32.2327 45.9562V44.9852C25.3921 44.987 19.2112 45.0151 12.4023 44.3538C11.3627 44.2535 10.1649 44.199 9.49473 43.4004C11.609 42.1006 13.6793 40.4894 15.7601 38.8483C15.695 39.828 16.4268 40.6494 17.2728 41.0364C18.0767 41.4269 18.9632 41.5729 19.8391 41.6661C22.7432 41.9915 25.6437 41.703 28.5424 41.5588C25.8354 41.5131 23.095 41.6133 20.4161 41.1894C19.461 41.0276 18.432 40.8939 17.5701 40.4507C16.7961 40.069 16.1875 39.2739 16.6361 38.4156C16.7399 38.2115 16.8735 38.0268 17.0248 37.8527C17.7776 37.2599 18.5322 36.6724 19.2921 36.099C19.2886 36.4578 19.3888 36.8079 19.6245 37.0893C20.4741 38.0286 22.5022 38.201 23.6965 38.2414C24.138 38.2379 24.6147 38.2344 25.0544 38.2168C26.6023 38.1711 28.1431 37.9178 29.6558 37.6258C28.122 37.7665 26.5935 37.8668 25.0597 37.7595C24.0571 37.6786 23.0334 37.6363 22.0484 37.4464C21.4503 37.3197 20.8752 37.1614 20.3879 36.829C20.3352 36.792 20.2666 36.7358 20.2243 36.6883C19.8655 36.296 20.0907 35.5924 20.453 35.2424C20.9385 34.8941 21.424 34.5547 21.9147 34.2257C22.2032 34.0322 22.4952 33.844 22.7889 33.6593C22.9578 34.2803 23.7229 34.5177 24.2822 34.6532C26.4194 35.1615 28.7799 34.9293 30.91 34.5036C29.4641 34.6567 27.9919 34.6602 26.5513 34.4825C25.663 34.3717 24.7994 34.1606 23.985 33.8282C23.591 33.6505 23.4485 33.5327 23.5892 33.1721C26.2699 31.5908 29.1334 30.4422 32.2345 30.2646V30.2716Z" fill="#D8BB7B"/>
<path d="M5.7078 31.2143C5.38415 30.8396 5.08337 30.4473 4.80722 30.034H4.52579C4.06494 30.0393 3.53549 30.0428 2.91283 30.0428C2.11778 30.0428 1.16619 30.0358 0 30.0146V31.318C0.355308 31.3128 0.745797 31.3092 1.17146 31.3057C2.56807 31.2916 4.22149 31.2758 5.7078 31.2143Z" fill="#D8BB7B"/>
<path d="M5.27507 8.09603C5.07103 8.09603 4.86699 8.09251 4.66999 8.08724C4.11064 8.07141 3.66211 8.0591 3.25931 8.04678C2.87761 8.03447 2.53638 8.02567 2.18283 8.01512C1.95768 8.40033 1.75013 8.7961 1.55664 9.20066C3.2382 9.23759 4.918 9.24815 7.44561 9.21121C7.70242 9.20769 7.96626 9.20417 8.23362 9.20241C9.39805 9.1901 10.6029 9.17779 11.5405 9.07577C12.8667 8.93329 13.0391 8.66594 13.0514 8.55864C13.0971 8.15408 12.7506 7.95004 11.4455 7.40828C10.6364 7.07232 9.55988 6.50418 9.55988 5.44881C9.55988 4.01174 11.5264 2.89129 15.0988 2.29676C16.0961 2.13142 18.9949 1.68993 22.8365 1.46478C22.4354 1.28009 22.0238 1.11123 21.6052 0.959961C18.9843 1.06022 17.0196 1.21853 15.8464 1.37156C11.69 1.91155 7.37702 3.41194 7.35239 4.9862C7.34711 5.37141 7.62503 5.60008 8.20724 6.04157C8.84046 6.52177 8.87037 6.91402 8.78418 7.15851C8.51858 7.91134 6.84229 8.09603 5.27507 8.09603Z" fill="#D8BB7B"/>
<path d="M4.52422 29.7101H4.5981C3.4495 27.8685 2.78638 25.6927 2.78638 23.3638C3.57087 23.3638 4.33601 23.4395 5.07829 23.5837C4.91647 23.3533 4.88481 23.158 4.88481 22.9276C4.88481 22.4879 5.0607 22.1291 5.96128 21.6014C6.17939 21.473 6.29549 21.3041 6.28669 21.1265C6.2779 20.9611 6.15829 20.8046 5.9736 20.7184C5.35972 20.4352 4.56292 20.3701 4.24807 20.3543C3.20852 20.305 2.04937 20.3085 0.00195312 20.3701V29.689C2.08104 29.7295 3.47764 29.7189 4.52422 29.7101Z" fill="#D8BB7B"/>
<path d="M7.5546 56.8331C7.14125 56.3881 6.63467 55.973 6.18086 55.5262C5.56171 54.8859 4.84054 54.3952 4.18973 53.7637C3.61983 53.229 3.12908 52.6063 2.67351 51.9749C1.89605 50.9371 1.24876 49.7621 0.9726 48.4851C0.863545 48.0718 0.79143 47.6602 0.754492 47.2521C0.659508 46.4711 0.664786 45.4896 1.02713 44.4237C1.23117 43.8204 1.50908 43.3015 1.81338 42.8617C1.16081 42.8582 0.506479 42.8512 0.00341797 42.8477V45.9645C0.00341797 52.404 3.77989 57.9606 9.23968 60.541C9.12007 59.1567 8.58711 57.8797 7.55812 56.8349L7.5546 56.8331Z" fill="#D8BB7B"/>
<path d="M20.8224 50.427C17.7794 49.7727 14.6485 49.4244 11.6635 48.5186C11.2167 48.3708 10.7858 48.1879 10.3601 47.9909C10.3549 47.9874 10.3478 47.9856 10.3408 47.9821C9.40327 47.574 8.38483 47.071 7.57923 45.9945C7.00405 45.2258 6.74373 44.4554 6.62764 43.9435C6.53793 43.5531 6.49396 43.152 6.4922 42.751C6.18966 42.7703 5.89416 42.7826 5.61096 42.7932C5.40341 43.8873 5.36471 45.3349 6.07884 46.6699C6.5133 47.4843 7.11311 48.0419 7.81317 48.596C8.17552 48.8756 8.55017 49.1483 8.93187 49.3893C9.44548 49.7094 9.99251 49.982 10.5448 50.2476C11.653 50.77 12.784 51.259 13.9273 51.6935C14.499 51.9063 15.09 52.1209 15.6651 52.3689C19.8004 54.0417 22.5391 56.0082 24.2471 59.8779C26.1995 58.7346 27.8881 57.192 29.2038 55.3627C27.0508 52.6046 24.3456 51.1007 20.8154 50.427H20.8224Z" fill="#D8BB7B"/>
<path d="M14.953 61.3311C14.7964 59.9609 14.4235 58.5766 13.5194 57.5142C13.0445 56.946 12.4641 56.5116 11.8502 56.0683C10.0244 54.7368 7.97874 53.7201 6.24617 52.2532C5.3667 51.4968 4.67719 50.5646 4.08618 49.5672C3.86983 49.1855 3.68689 48.788 3.54266 48.3817C3.53914 48.3747 3.53738 48.3694 3.53562 48.3624C3.41074 48.0317 3.30168 47.6711 3.21901 47.2788C3.11875 46.7951 2.84963 45.5093 3.29289 43.9351C3.39843 43.5639 3.53562 43.2051 3.70097 42.8604C3.29289 42.8656 2.76344 42.8674 2.20937 42.8639C1.86989 43.3194 1.55504 43.8717 1.33166 44.5296C0.988661 45.548 0.985142 46.4873 1.07837 47.2349C1.28768 48.6051 1.8224 49.9278 2.66494 51.0324C3.26123 51.8169 3.90149 52.612 4.65256 53.254C5.21366 53.7465 5.87327 54.1687 6.45373 54.6682C6.64369 54.83 6.82838 55.0077 7.02539 55.1677C8.31646 56.1862 9.44922 57.282 10.0121 58.8914C10.2583 59.5862 10.3903 60.3144 10.4342 61.0479C11.8731 61.5897 13.4104 61.9327 15.011 62.04C14.997 61.8025 14.9776 61.5651 14.9512 61.3294L14.953 61.3311Z" fill="#D8BB7B"/>
<path d="M20.0382 55.7904C17.7041 53.7923 14.7508 52.7862 12.0068 51.4933C10.8864 50.948 9.76766 50.408 8.72636 49.7133C8.35347 49.4565 8.00519 49.1803 7.6622 48.8954C7.65692 48.8918 7.6534 48.8883 7.64813 48.8848C6.90409 48.2991 6.26207 47.7098 5.79067 46.8268C5.04839 45.439 5.07126 43.9457 5.27706 42.8076C4.89888 42.8199 4.54357 42.8305 4.2252 42.8463C4.17947 42.8481 4.1267 42.8516 4.07041 42.8533C3.87869 43.2262 3.72214 43.6185 3.60781 44.0266C3.18566 45.5234 3.44247 46.7529 3.53921 47.2138C3.59374 47.4741 3.66058 47.7221 3.73797 47.9561C3.73797 47.9596 3.74149 47.9649 3.74149 47.9684C4.0968 48.9534 4.6667 49.8874 5.41425 50.7C6.11608 51.5637 7.0149 52.1969 7.95243 52.7844C9.39477 53.6744 10.9022 54.4466 12.3199 55.3806C13.9751 56.4325 15.0586 57.5371 15.676 59.4473C15.9574 60.3057 16.1122 61.1904 16.2054 62.0805C18.7225 62.0664 21.1024 61.4754 23.2219 60.4341C22.5341 58.6646 21.4876 57.0323 20.0382 55.7922V55.7904Z" fill="#D8BB7B"/>
<path d="M26.7293 47.073C24.4515 46.6579 22.0822 46.7511 19.7568 46.7054C17.9838 46.6755 16.2143 46.5946 14.4465 46.4363C14.0279 46.4011 13.6146 46.3378 13.2065 46.2534C12.7931 46.1795 12.3094 46.0704 11.7835 45.9086C10.8864 45.6324 10.1776 45.4161 9.52675 44.8849C8.74226 44.2446 8.32363 43.388 8.10376 42.5859C7.67106 42.651 7.24011 42.695 6.82324 42.7267C6.82324 43.1119 6.86546 43.4971 6.94989 43.87C7.05894 44.3502 7.30344 45.0749 7.84344 45.796C8.61386 46.825 9.61118 47.307 10.5241 47.7027C10.9339 47.8716 11.3508 48.0281 11.7782 48.1495C14.7807 48.927 17.9152 49.1451 20.967 49.671C24.601 50.2057 27.5244 51.6657 29.8937 54.3305C30.8523 52.7544 31.5488 51.0008 31.9217 49.131C30.3334 48.1372 28.5745 47.416 26.7276 47.073H26.7293Z" fill="#D8BB7B"/>
<path d="M15.1252 19.8249V19.846C14.93 19.846 14.7347 19.839 14.543 19.8249C10.23 19.5259 6.82471 15.9323 6.82471 11.542C9.11838 11.542 11.1939 12.4707 12.6943 13.9746C14.193 15.4733 15.1217 17.54 15.127 19.8249H15.1252Z" fill="#55634B"/>
</svg>
