<svg width="99" height="48" viewBox="0 0 99 48" fill="none" xmlns="http://www.w3.org/2000/svg">
<path d="M23.8431 19.9229C23.4458 19.9479 22.9512 19.9781 22.2381 20.061C21.954 20.0939 21.5856 20.2386 21.4278 20.4531C21.358 20.5478 21.3357 20.6464 21.3567 20.7556C21.412 21.0398 22.1355 21.1385 22.6328 21.1187C23.4103 21.0872 23.755 21.0911 24.8956 21.1095V19.8334C24.739 19.8505 24.5719 19.8663 24.3943 19.8834C24.2273 19.8992 24.0483 19.9097 23.8418 19.9229H23.8431Z" fill="#55634B"/>
<path d="M19.3584 11.372C18.0534 11.3865 14.9264 11.5785 14.0713 13.0309C13.7305 13.6098 13.7568 14.2294 14.1449 14.6872C14.3501 14.9292 14.6975 15.1358 15.1316 15.3121C15.4605 15.0213 15.8104 14.7543 16.1788 14.5122C15.9998 14.3162 15.8512 14.0465 15.8512 13.6887C15.8512 12.5836 18.6599 12.2153 19.415 12.2153C19.7794 12.2153 20.4056 12.1863 21.2002 12.1495C22.2185 12.1021 23.5301 12.0429 24.8693 12.0179C24.8522 11.7601 24.8272 11.5062 24.7943 11.2536C24.0668 11.2681 23.2209 11.2878 22.3908 11.3089C21.2265 11.3378 20.128 11.3641 19.3611 11.3733L19.3584 11.372Z" fill="#55634B"/>
<path d="M14.283 3.25366C14.1226 3.27997 13.9568 3.30628 13.7884 3.33391C12.2676 3.57465 10.3759 3.87591 10.3443 4.92309C10.3338 5.2796 10.8613 5.7782 11.7309 5.96106C12.1834 6.05709 12.5768 6.15313 12.9057 6.261C13.2701 5.03491 14.4054 4.14034 15.7499 4.14034C17.3891 4.14034 18.7178 5.46904 18.7178 7.10822C18.7178 8.74739 17.3891 10.0761 15.7499 10.0761C14.4817 10.0761 13.4003 9.28019 12.9754 8.16197C12.5413 8.29879 11.9729 8.41193 11.2691 8.50139C9.81939 8.68556 6.17795 8.74871 3.33504 8.74871C2.66806 8.74871 2.04712 8.74476 1.50643 8.7395C1.04336 10.0195 0.790771 11.3995 0.790771 12.8388V14.7923C0.995997 14.7989 1.19465 14.8055 1.38277 14.8108C2.97064 14.8594 4.02045 14.891 5.21233 15.0673C5.2518 15.0726 6.23715 15.2054 6.98701 15.5896C7.47771 15.8408 7.56454 16.1645 7.57243 16.3355C7.58296 16.567 7.46587 16.7828 7.25801 16.9143C6.64365 17.3024 6.52657 17.5274 6.54104 17.7431C6.56209 18.0496 6.74232 18.3167 7.09489 18.5614C7.70925 18.9876 8.04471 19.1205 8.46964 19.2902C8.67354 19.3718 8.90508 19.4639 9.19713 19.5994C10.1733 20.0532 10.3535 20.6505 10.3732 20.9662C10.3995 21.3596 10.3009 21.7003 10.1601 21.9897C10.9008 23.0158 11.4323 24.2051 11.6862 25.493L11.8559 15.6974C9.34579 15.5238 7.36457 13.4321 7.36457 10.8786C8.69854 10.8786 9.90621 11.4193 10.7797 12.2941C11.6519 13.1663 12.1913 14.3687 12.1953 15.6988V15.7106L12.2782 20.2677C12.632 18.4969 13.5069 16.9143 14.7343 15.6856C14.8001 15.6198 14.8658 15.5567 14.9342 15.4922C14.512 15.3094 14.1712 15.0949 13.9581 14.845C13.5069 14.3122 13.47 13.5702 13.8608 12.9072C14.7461 11.4035 17.6837 11.147 19.3571 11.1285C20.1228 11.1193 21.2213 11.093 22.3842 11.0641C23.2038 11.0443 24.0392 11.0233 24.7601 11.0101C24.2404 7.59892 22.2908 4.65735 19.5426 2.81689C16.4971 2.8853 15.0421 3.12868 14.2857 3.25497L14.283 3.25366Z" fill="#55634B"/>
<path d="M22.5052 15.4687C22.8012 15.4779 23.1116 15.4871 23.4418 15.4977L23.5142 15.5003C23.8089 15.5095 24.3325 15.5253 24.8968 15.6213V12.8389C24.8968 12.6455 24.8916 12.4548 24.8824 12.264C23.5431 12.2877 22.2289 12.3482 21.2093 12.3956C20.4121 12.4324 19.7833 12.4614 19.4136 12.4614C18.5611 12.4614 16.0945 12.8837 16.0945 13.6901C16.0945 13.9927 16.2287 14.2189 16.3865 14.3808C17.7534 13.5401 19.361 13.056 21.083 13.056C21.083 13.8703 20.9739 14.6597 20.7699 15.4108C21.2843 15.4345 21.8526 15.4516 22.5012 15.4713L22.5052 15.4687Z" fill="#55634B"/>
<path d="M21.679 19.2404C21.4133 19.2851 21.1725 19.3246 20.9502 19.3601C19.9728 19.5193 19.3834 19.6153 18.7585 19.8442C18.1336 20.0731 17.6245 20.5888 17.6245 20.9927C17.6245 21.9149 19.0045 22.2372 20.1635 22.3451C21.0634 22.4293 22.7946 22.4161 24.322 22.4056C24.5193 22.4043 24.7114 22.403 24.8969 22.4016V21.3531C23.7576 21.3347 23.4156 21.3308 22.6433 21.3624C22.6223 21.3624 22.5762 21.365 22.5144 21.365C22.1526 21.365 21.2173 21.315 21.1173 20.8019C21.0831 20.627 21.1226 20.4559 21.2318 20.3073C21.4409 20.0218 21.8737 19.8547 22.2118 19.8166C22.9314 19.7337 23.4287 19.7021 23.83 19.6785C24.0339 19.6653 24.2115 19.6548 24.3746 19.639C24.564 19.6206 24.7377 19.6048 24.8982 19.5864V15.8686C24.3338 15.7686 23.8023 15.7529 23.5077 15.745L23.4353 15.7423C23.1064 15.7318 22.7946 15.7226 22.4999 15.7134C21.833 15.6937 21.2436 15.6752 20.7068 15.6489C20.6411 15.8673 20.5674 16.0831 20.4858 16.2949C20.4964 16.2949 20.5069 16.2975 20.5174 16.2975C20.82 16.3251 21.0384 16.3462 21.1594 16.3633C22.6039 16.5738 23.4853 17.0816 23.5787 17.7551C23.6747 18.4471 22.9301 19.0299 21.6817 19.2404H21.679Z" fill="#55634B"/>
<path d="M7.12509 16.7053C7.25796 16.6211 7.33295 16.4869 7.32637 16.3449C7.31716 16.1449 7.15272 15.9489 6.87382 15.8068C6.16079 15.4424 5.18597 15.3108 5.17676 15.3095C3.99671 15.1346 2.95348 15.103 1.37351 15.0543C1.1867 15.049 0.991996 15.0425 0.788086 15.0359V15.7726C2.3207 15.7266 3.19291 15.7239 3.97435 15.7608C4.22299 15.7726 4.85708 15.8252 5.35567 16.0554C5.57669 16.1581 5.7214 16.3554 5.73192 16.5711C5.74245 16.7961 5.61089 17.0066 5.36751 17.1487C4.68343 17.5499 4.68343 17.7604 4.68343 17.9288C4.68343 18.0972 4.70711 18.2498 4.99522 18.5103C6.62255 18.9049 8.07623 19.7416 9.22208 20.8875C9.49571 21.1611 9.75093 21.4545 9.98904 21.7623C10.0851 21.5308 10.1456 21.2703 10.1259 20.9809C10.0969 20.5296 9.72856 20.1165 9.09052 19.8192C8.80505 19.6864 8.57746 19.5956 8.37618 19.5153C7.93678 19.3404 7.58948 19.2022 6.95275 18.7602C6.54099 18.4747 6.31997 18.1366 6.29498 17.7564C6.2713 17.392 6.50283 17.0974 7.12509 16.704V16.7053Z" fill="#55634B"/>
<path d="M11.2375 8.258C11.644 8.2067 12.3346 8.10014 12.8964 7.92517C12.8227 7.666 12.7819 7.39237 12.7819 7.10821C12.7819 6.90035 12.803 6.69776 12.8437 6.50174C12.5491 6.40308 12.1689 6.3031 11.6808 6.20048C10.7639 6.0071 10.0837 5.45457 10.0995 4.91519C10.1363 3.66542 12.057 3.36021 13.7502 3.09184C13.9186 3.06553 14.0843 3.03922 14.2435 3.01291C14.9763 2.89056 16.3563 2.66034 19.1742 2.58009C18.8979 2.40907 18.6151 2.24857 18.3243 2.09991C15.2446 2.25778 12.9016 2.61298 12.1215 2.74322C9.61934 3.16025 8.18275 3.93116 8.18275 4.85994C8.18275 5.3559 8.57084 5.73741 9.44174 6.09918C10.3929 6.49385 10.8481 6.70697 10.7915 7.21346C10.7231 7.8265 9.22467 7.88833 6.94745 7.91201C6.74749 7.91464 6.55016 7.91596 6.3594 7.91859C5.53587 7.93043 4.83205 7.93701 4.19664 7.93701C3.32838 7.93701 2.58641 7.92648 1.83786 7.90938C1.75103 8.10145 1.67078 8.29747 1.59448 8.4948C4.37687 8.52243 9.47462 8.48296 11.2348 8.25932L11.2375 8.258Z" fill="#55634B"/>
<path d="M3.23373 6.55712C3.53499 6.56632 3.87045 6.57685 4.2888 6.58738C6.72783 6.65447 7.07908 6.19797 7.12907 6.05589C7.20011 5.8533 6.94095 5.61781 6.78045 5.49678C6.34895 5.16921 6.03848 4.93241 6.04374 4.50881C6.06742 2.97224 9.9825 1.90665 12.6097 1.56592C13.3924 1.46462 14.6422 1.35938 16.2879 1.28439C15.196 0.959452 14.041 0.784485 12.8438 0.784485C8.49593 0.784485 4.6861 3.0867 2.56543 6.5387C2.7825 6.54528 2.99693 6.55054 3.23373 6.55843V6.55712Z" fill="#55634B"/>
<path d="M24.8969 23.425V22.6475C24.7114 22.6475 24.5207 22.6501 24.3233 22.6515C23.7879 22.6554 23.2275 22.6594 22.6868 22.6594C21.6778 22.6594 20.7345 22.6449 20.1412 22.5896C18.3086 22.4186 17.3799 21.8819 17.3799 20.9926C17.3799 20.4269 18.0389 19.8467 18.6744 19.6139C19.3203 19.3771 19.9189 19.2797 20.9108 19.1179C21.1318 19.0824 21.3725 19.0429 21.6383 18.9982C22.7262 18.8153 23.4077 18.3286 23.3327 17.7879C23.2564 17.238 22.4303 16.7959 21.1213 16.6052C21.0068 16.5881 20.7792 16.567 20.4924 16.5407C20.4582 16.5381 20.4227 16.5342 20.3872 16.5315C19.0532 19.7046 15.9485 21.9516 12.3097 22.0332L12.44 29.2371L11.6112 29.8002L11.6559 27.2375C9.13267 27.1822 6.86729 26.0877 5.2689 24.3643C4.10201 24.4182 2.77857 24.4314 1.66824 24.4419C1.34988 24.4446 1.05651 24.4485 0.790771 24.4511V27.2967C1.55642 27.4045 2.52467 27.644 3.06273 27.8992C3.32978 28.0255 3.57053 28.1426 3.79154 28.2557C3.78233 28.2689 3.76918 28.2846 3.75339 28.3004C3.10088 28.8359 1.85111 28.9187 1.02362 29.0266C1.52485 29.0621 2.02739 29.1016 2.53256 29.0911C3.06667 29.0727 3.64552 29.0371 4.08886 28.6938C4.16384 28.632 4.22173 28.5688 4.26514 28.5057C4.91897 28.8595 5.43072 29.1792 6.06613 29.5713C6.20952 29.6936 6.33845 29.8502 6.35949 30.0159C6.3687 30.2435 6.10691 30.3922 5.92273 30.4961C5.27416 30.796 4.52167 30.8592 3.80864 30.9539C3.33505 31.0092 2.85618 31.042 2.38127 31.0933C2.85882 31.1026 3.33768 31.1315 3.81785 31.1381C4.58087 31.1381 5.36494 31.171 6.11349 30.9315C6.6226 30.7276 6.8673 30.4132 6.89624 30.0738C6.99622 30.133 7.10015 30.1948 7.20802 30.258C7.77502 30.5908 8.85772 31.2617 9.54049 31.6998C8.79589 32.1839 7.93947 32.4457 7.09094 32.5931C7.24617 33.1456 7.53559 33.7284 8.06708 34.1625C8.51568 34.5296 9.00112 34.6782 9.67205 34.8834C9.99962 34.9847 10.3061 35.0571 10.5771 35.1097C10.5811 35.1097 10.5837 35.1097 10.5864 35.111C10.9258 35.1702 11.2691 35.2097 11.6125 35.2255C12.9267 35.286 14.2449 35.2886 15.5604 35.2531C17.3351 35.2097 19.1072 35.0624 20.8897 35.3071C22.2592 35.5004 23.5866 35.9556 24.8088 36.6055C24.8653 36.1306 24.8956 35.6465 24.8956 35.1558V34.4296C19.7794 34.4309 15.1566 34.4519 10.0641 33.9573C9.28659 33.8823 8.3907 33.8415 7.88948 33.2443C9.47077 32.2721 11.0192 31.067 12.5755 29.8396C12.5268 30.5724 13.0741 31.1867 13.7068 31.4762C14.308 31.7682 14.9711 31.8774 15.6262 31.9471C17.7982 32.1905 19.9675 31.9748 22.1356 31.8669C20.1109 31.8327 18.0613 31.9077 16.0577 31.5906C15.3434 31.4696 14.5738 31.3696 13.9292 31.0381C13.3503 30.7526 12.8951 30.158 13.2306 29.516C13.3082 29.3634 13.4082 29.2253 13.5213 29.095C14.0844 28.6517 14.6488 28.2123 15.2171 27.7834C15.2145 28.0518 15.2894 28.3136 15.4657 28.5241C16.1011 29.2266 17.618 29.3555 18.5112 29.3858C18.8414 29.3831 19.1979 29.3805 19.5268 29.3673C20.6845 29.3331 21.8369 29.1437 22.9683 28.9253C21.8211 29.0306 20.6779 29.1055 19.5308 29.0253C18.7809 28.9648 18.0153 28.9332 17.2786 28.7911C16.8313 28.6964 16.4011 28.578 16.0367 28.3294C15.9972 28.3017 15.9459 28.2597 15.9143 28.2241C15.646 27.9308 15.8143 27.4045 16.0854 27.1427C16.4484 26.8823 16.8115 26.6284 17.1786 26.3824C17.3943 26.2377 17.6127 26.0969 17.8324 25.9588C17.9587 26.4231 18.531 26.6007 18.9493 26.702C20.5477 27.0822 22.3132 26.9086 23.9063 26.5902C22.8249 26.7047 21.7238 26.7073 20.6464 26.5744C19.982 26.4916 19.3361 26.3337 18.727 26.085C18.4323 25.9522 18.3257 25.864 18.431 25.5943C20.4359 24.4117 22.5776 23.5526 24.8969 23.4197V23.425Z" fill="#55634B"/>
<path d="M5.05704 24.1301C4.81498 23.8499 4.59002 23.5565 4.38348 23.2473H4.173C3.82832 23.2513 3.43234 23.2539 2.96664 23.2539C2.37201 23.2539 1.6603 23.2487 0.788086 23.2329V24.2077C1.05383 24.2038 1.34588 24.2011 1.66424 24.1985C2.70879 24.188 3.94541 24.1761 5.05704 24.1301Z" fill="#55634B"/>
<path d="M4.73346 6.83984C4.58086 6.83984 4.42826 6.83721 4.28092 6.83326C3.86257 6.82142 3.5271 6.81221 3.22584 6.80301C2.94037 6.7938 2.68515 6.78722 2.42073 6.77932C2.25234 7.06743 2.0971 7.36343 1.95239 7.66601C3.21006 7.69363 4.46641 7.70153 6.35685 7.6739C6.54892 7.67127 6.74625 7.66864 6.94622 7.66732C7.81711 7.65811 8.71826 7.6489 9.41945 7.5726C10.4114 7.46604 10.5403 7.26608 10.5495 7.18583C10.5837 6.88325 10.3246 6.73065 9.34841 6.32546C8.74326 6.07419 7.93814 5.64927 7.93814 4.85994C7.93814 3.78513 9.40893 2.94713 12.0808 2.50247C12.8267 2.37881 14.9948 2.04861 17.8679 1.88022C17.568 1.74208 17.2601 1.61579 16.947 1.50266C14.9869 1.57764 13.5174 1.69604 12.6399 1.81049C9.53127 2.21437 6.30555 3.33653 6.28713 4.51395C6.28318 4.80205 6.49104 4.97307 6.92649 5.30328C7.40008 5.66242 7.42245 5.95579 7.35799 6.13865C7.15934 6.70171 5.90562 6.83984 4.73346 6.83984Z" fill="#55634B"/>
<path d="M4.17183 23.0053H4.22708C3.36803 21.628 2.87207 20.0006 2.87207 18.2588C3.4588 18.2588 4.03106 18.3154 4.58623 18.4233C4.4652 18.251 4.44152 18.1049 4.44152 17.9326C4.44152 17.6037 4.57307 17.3353 5.24663 16.9407C5.40976 16.8446 5.49659 16.7183 5.49001 16.5855C5.48343 16.4618 5.39397 16.3447 5.25584 16.2803C4.79671 16.0685 4.20077 16.0198 3.96529 16.0079C3.1878 15.9711 2.32085 15.9737 0.789551 16.0198V22.9896C2.34453 23.0198 3.38908 23.0119 4.17183 23.0053Z" fill="#55634B"/>
<path d="M6.43843 43.2913C6.12927 42.9584 5.75039 42.648 5.41098 42.3138C4.94791 41.835 4.40853 41.4679 3.92178 40.9956C3.49554 40.5957 3.1285 40.13 2.78777 39.6577C2.2063 38.8815 1.72218 38.0028 1.51564 37.0477C1.43407 36.7385 1.38014 36.4307 1.35251 36.1255C1.28147 35.5414 1.28542 34.8073 1.55642 34.0101C1.70903 33.5588 1.91688 33.1707 2.14447 32.8419C1.6564 32.8392 1.16702 32.834 0.790771 32.8313V35.1625C0.790771 39.9787 3.61526 44.1345 7.69872 46.0644C7.60926 45.0291 7.21065 44.074 6.44106 43.2926L6.43843 43.2913Z" fill="#55634B"/>
<path d="M16.3617 38.5C14.0858 38.0106 11.7441 37.7501 9.51161 37.0726C9.17746 36.9621 8.85515 36.8253 8.53679 36.6779C8.53284 36.6753 8.52758 36.674 8.52232 36.6714C7.82113 36.3661 7.05943 35.9899 6.4569 35.1848C6.02672 34.6099 5.83202 34.0337 5.74519 33.6509C5.6781 33.3588 5.64521 33.0589 5.64389 32.7589C5.41762 32.7734 5.19661 32.7826 4.9848 32.7905C4.82957 33.6088 4.80063 34.6915 5.33474 35.69C5.65968 36.2991 6.10828 36.7161 6.63187 37.1305C6.90287 37.3397 7.18309 37.5436 7.46856 37.7238C7.8527 37.9632 8.26184 38.1671 8.67492 38.3658C9.50372 38.7565 10.3496 39.1222 11.2047 39.4472C11.6323 39.6063 12.0743 39.7668 12.5045 39.9523C15.5973 41.2034 17.6457 42.6742 18.9231 45.5684C20.3833 44.7133 21.6462 43.5596 22.6303 42.1914C21.02 40.1286 18.9967 39.0038 16.3564 38.5H16.3617Z" fill="#55634B"/>
<path d="M11.9716 46.655C11.8545 45.6302 11.5756 44.5949 10.8994 43.8003C10.5442 43.3753 10.1101 43.0504 9.65098 42.7189C8.28544 41.723 6.75546 40.9626 5.45964 39.8655C4.80187 39.2998 4.28617 38.6025 3.84415 37.8566C3.68233 37.5711 3.54552 37.2738 3.43764 36.9699C3.43501 36.9647 3.43369 36.9607 3.43238 36.9555C3.33897 36.7081 3.25741 36.4385 3.19558 36.1451C3.12059 35.7833 2.91931 34.8216 3.25083 33.6442C3.32977 33.3666 3.43238 33.0983 3.55604 32.8404C3.25083 32.8444 2.85485 32.8457 2.44045 32.8431C2.18655 33.1838 1.95107 33.5969 1.784 34.0889C1.52746 34.8506 1.52483 35.5531 1.59456 36.1122C1.75111 37.137 2.15103 38.1263 2.78118 38.9525C3.22715 39.5392 3.70601 40.1338 4.26775 40.614C4.68741 40.9824 5.18074 41.2981 5.61488 41.6717C5.75695 41.7927 5.89509 41.9256 6.04243 42.0453C7.00804 42.807 7.85526 43.6266 8.27623 44.8303C8.46041 45.35 8.55908 45.8946 8.59196 46.4432C9.66808 46.8484 10.8179 47.1049 12.015 47.1852C12.0045 47.0076 11.99 46.83 11.9703 46.6537L11.9716 46.655Z" fill="#55634B"/>
<path d="M15.7749 42.5111C14.0292 41.0166 11.8204 40.2641 9.76813 39.2972C8.93012 38.8894 8.09343 38.4855 7.31462 37.9658C7.03573 37.7738 6.77525 37.5672 6.51872 37.3541C6.51477 37.3515 6.51214 37.3488 6.50819 37.3462C5.95172 36.9081 5.47154 36.4674 5.11897 35.807C4.56381 34.7691 4.58091 33.6522 4.73483 32.801C4.45199 32.8102 4.18625 32.8181 3.94813 32.8299C3.91393 32.8313 3.87446 32.8339 3.83236 32.8352C3.68897 33.1141 3.57189 33.4075 3.48638 33.7127C3.17064 34.8322 3.36271 35.7518 3.43507 36.0964C3.47585 36.2911 3.52584 36.4766 3.58373 36.6516C3.58373 36.6542 3.58636 36.6582 3.58636 36.6608C3.8521 37.3975 4.27834 38.0961 4.83744 38.7039C5.36235 39.3498 6.0346 39.8234 6.73578 40.2628C7.81453 40.9285 8.94196 41.506 10.0023 42.2045C11.2402 42.9912 12.0506 43.8174 12.5124 45.2461C12.7228 45.8881 12.8386 46.5498 12.9083 47.2155C14.7909 47.2049 16.5708 46.7629 18.1561 45.9841C17.6417 44.6607 16.8589 43.4398 15.7749 42.5124V42.5111Z" fill="#55634B"/>
<path d="M20.7792 35.9911C19.0756 35.6806 17.3035 35.7504 15.5644 35.7161C14.2383 35.6938 12.9148 35.6333 11.5927 35.5149C11.2796 35.4886 10.9704 35.4412 10.6652 35.3781C10.3561 35.3228 9.99431 35.2412 9.60096 35.1202C8.93003 34.9137 8.39987 34.7519 7.91311 34.3546C7.32638 33.8757 7.01328 33.235 6.84883 32.6351C6.52521 32.6838 6.2029 32.7167 5.89111 32.7404C5.89111 33.0285 5.92269 33.3166 5.98583 33.5955C6.0674 33.9546 6.25026 34.4966 6.65413 35.036C7.23034 35.8056 7.97626 36.1661 8.65903 36.4621C8.96555 36.5884 9.27734 36.7054 9.59702 36.7962C11.8427 37.3777 14.187 37.5408 16.4694 37.9342C19.1874 38.3341 21.3738 39.426 23.1459 41.4191C23.8628 40.2403 24.3838 38.9287 24.6627 37.5303C23.4748 36.787 22.1592 36.2476 20.7779 35.9911H20.7792Z" fill="#55634B"/>
<path d="M12.1004 15.6121V15.6279C11.9544 15.6279 11.8084 15.6226 11.665 15.6121C8.43924 15.3885 5.89233 12.7008 5.89233 9.41718C7.60781 9.41718 9.16016 10.1118 10.2823 11.2366C11.4032 12.3574 12.0978 13.9032 12.1017 15.6121H12.1004Z" fill="#F0F0F0" fill-opacity="0.94"/>
<path d="M38.7229 15.5467H40.3581C40.637 15.5467 40.8764 15.5033 41.0737 15.4165C41.2711 15.3296 41.4237 15.206 41.5289 15.0468C41.6355 14.8876 41.6881 14.6929 41.6881 14.4614C41.6881 14.1141 41.5723 13.8536 41.3408 13.6799C41.1093 13.5063 40.7817 13.4194 40.3568 13.4194H39.3438V19.7578H40.5883C40.9067 19.7578 41.1908 19.717 41.4421 19.6354C41.6934 19.5539 41.8933 19.4184 42.042 19.2302C42.192 19.0421 42.267 18.7843 42.267 18.4554C42.267 18.2436 42.2235 18.0594 42.1367 17.9055C42.0499 17.7516 41.9289 17.6253 41.7749 17.5292C41.621 17.4332 41.4447 17.3622 41.2461 17.3201C41.0488 17.2766 40.8291 17.2556 40.5883 17.2556H38.7215V15.9243H40.8633C41.3553 15.9243 41.8328 15.9769 42.2959 16.0834C42.759 16.19 43.1786 16.361 43.5549 16.5978C43.9311 16.8346 44.2324 17.1332 44.46 17.495C44.6862 17.8568 44.7994 18.2936 44.7994 18.804C44.7994 19.4789 44.6376 20.0248 44.3139 20.4392C43.9903 20.8536 43.5351 21.1601 42.9471 21.3575C42.359 21.5548 41.6644 21.6548 40.8633 21.6548H36.8982V11.5251H40.6173C41.3211 11.5251 41.942 11.6198 42.4761 11.8079C43.0116 11.996 43.4365 12.2802 43.7496 12.6617C44.0627 13.0432 44.2192 13.5234 44.2192 14.1022C44.2192 14.6324 44.0627 15.0862 43.7496 15.4625C43.4365 15.8387 43.0116 16.1255 42.4761 16.3229C41.9407 16.5202 41.3211 16.6202 40.6173 16.6202H38.7215V15.5493L38.7229 15.5467Z" fill="#55634B"/>
<path d="M46.5148 14.4468C46.7897 13.8009 47.1726 13.2405 47.6659 12.7682C48.1579 12.2959 48.7368 11.9315 49.4024 11.675C50.0681 11.4198 50.7864 11.2908 51.5586 11.2908C52.3308 11.2908 53.061 11.4184 53.7214 11.675C54.3818 11.9302 54.9593 12.2946 55.4513 12.7682C55.9433 13.2405 56.3248 13.8009 56.5945 14.4468C56.8642 15.0928 56.9997 15.8071 56.9997 16.5886C56.9997 17.37 56.8669 18.0883 56.6011 18.7447C56.3354 19.4012 55.9591 19.9695 55.4724 20.4523C54.9856 20.9351 54.4094 21.3087 53.7437 21.5745C53.0781 21.8402 52.3493 21.9731 51.5586 21.9731C50.768 21.9731 50.0247 21.8402 49.359 21.5745C48.6933 21.3087 48.1171 20.9351 47.6304 20.4523C47.1423 19.9695 46.7674 19.4012 46.5016 18.7447C46.2359 18.0883 46.103 17.37 46.103 16.5886C46.103 15.8071 46.2398 15.0928 46.5148 14.4468ZM49.0472 18.1738C49.284 18.6316 49.6169 18.9907 50.0457 19.2512C50.4746 19.5117 50.9798 19.6419 51.5586 19.6419C52.1375 19.6419 52.6268 19.5117 53.057 19.2512C53.4859 18.9907 53.8187 18.6316 54.0555 18.1738C54.291 17.716 54.4094 17.1871 54.4094 16.5886C54.4094 15.99 54.2936 15.4624 54.0621 15.0046C53.8306 14.5468 53.503 14.1864 53.0781 13.9259C52.6532 13.6654 52.1467 13.5352 51.5586 13.5352C50.9706 13.5352 50.4759 13.6654 50.0457 13.9259C49.6169 14.1864 49.284 14.5455 49.0472 15.0046C48.8104 15.4624 48.692 15.9913 48.692 16.5886C48.692 17.1858 48.8104 17.7147 49.0472 18.1738Z" fill="#55634B"/>
<path d="M61.1819 11.5235V21.6532H58.7363V11.5235H61.1819ZM60.2703 11.5235H62.4264C63.2947 11.5235 64.0183 11.6629 64.5971 11.9432C65.1759 12.2234 65.6153 12.6115 65.914 13.1074C66.2126 13.6047 66.3626 14.1809 66.3626 14.8374C66.3626 15.4938 66.2126 16.0556 65.914 16.5515C65.6153 17.0488 65.1759 17.4369 64.5971 17.7158C64.0183 17.996 63.2947 18.1355 62.4264 18.1355H60.2703V16.2397H62.2528C62.5804 16.2397 62.8632 16.1884 63.1 16.0871C63.3355 15.9858 63.517 15.8359 63.642 15.6385C63.767 15.4412 63.8301 15.2018 63.8301 14.9216C63.8301 14.6414 63.767 14.4032 63.642 14.2059C63.5157 14.0086 63.3355 13.856 63.1 13.7507C62.8632 13.6442 62.5817 13.5915 62.2528 13.5915H60.2703V11.5222V11.5235ZM63.8012 17.0659L66.9703 21.6532H64.1051L61.2688 17.0659H63.8012Z" fill="#55634B"/>
<path d="M70.7183 11.5236V19.5551H74.7847V21.6534H68.2727V11.5236H70.7183Z" fill="#55634B"/>
<path d="M78.4604 11.5236V18.1514C78.4604 18.6631 78.5959 19.0775 78.8655 19.3959C79.1352 19.7142 79.5404 19.8734 80.0811 19.8734C80.6218 19.8734 81.0415 19.7142 81.3111 19.3959C81.5808 19.0775 81.7163 18.6631 81.7163 18.1514V11.5236H84.1619V18.325C84.1619 18.9617 84.058 19.5169 83.8502 19.9892C83.6423 20.4615 83.3529 20.8509 82.9819 21.1534C82.6109 21.4573 82.1768 21.6862 81.6795 21.8415C81.1822 21.9954 80.6494 22.073 80.0798 22.073C79.5102 22.073 78.98 21.9954 78.488 21.8415C77.996 21.6876 77.5645 21.4573 77.1935 21.1534C76.8225 20.8496 76.5331 20.4615 76.3252 19.9892C76.1174 19.5169 76.0134 18.9617 76.0134 18.325V11.5236H78.459H78.4604Z" fill="#55634B"/>
<path d="M88.8941 11.5236V21.6534H86.405V11.5236H88.8941Z" fill="#55634B"/>
<path d="M90.1951 11.5236H98.212V13.7087H95.4191V21.6534H92.9735V13.7087H90.1951V11.5236Z" fill="#55634B"/>
<path d="M36.8982 26.5794H43.3378V27.7371H40.733V36.7092H39.503V27.7371H36.8982V26.5794Z" fill="#55634B"/>
<path d="M45.8702 26.5794V36.7092H44.6401V26.5794H45.8702ZM45.3203 26.5794H50.4286V27.7371H45.3203V26.5794ZM45.3203 30.6313H50.1391V31.789H45.3203V30.6313ZM45.3203 35.5515H50.4286V36.7092H45.3203V35.5515Z" fill="#55634B"/>
<path d="M54.5094 32.8889L54.3937 33.1494L52.8887 36.7092H51.5139L56.217 26.073L60.9201 36.7092H59.5453L58.0693 33.2362L57.9535 32.9468L56.217 28.8659L54.5094 32.8889ZM54.0029 32.5126H58.489L58.9231 33.6703H53.5688L54.0029 32.5126Z" fill="#55634B"/>
</svg>
