<svg width="24" height="24" viewBox="0 0 24 24" fill="none" xmlns="http://www.w3.org/2000/svg">
<path d="M16.7698 1.5H7.22982C6.17496 1.5 5.31982 2.35514 5.31982 3.41V20.59C5.31982 21.6449 6.17496 22.5 7.22982 22.5H16.7698C17.8247 22.5 18.6798 21.6449 18.6798 20.59V3.41C18.6798 2.35514 17.8247 1.5 16.7698 1.5Z" stroke="#687D9B" stroke-width="2" stroke-miterlimit="10"/>
<path d="M9.13984 1.5H14.8698V2.5C14.8698 2.76522 14.7645 3.01957 14.577 3.20711C14.3894 3.39464 14.1351 3.5 13.8698 3.5H10.0898C9.82463 3.5 9.57027 3.39464 9.38274 3.20711C9.1952 3.01957 9.08984 2.76522 9.08984 2.5V1.5H9.13984Z" fill="#687D9B"/>
<path d="M11.0498 19.6401H12.9498" stroke="#687D9B" stroke-width="2" stroke-miterlimit="10"/>
</svg>
